<?xml version="1.0" standalone="no"?>
<svg width="700.000000" height="500.000000" version="1.1" xmlns="http://www.w3.org/2000/svg"    xmlns:xlink="http://www.w3.org/1999/xlink">
<rect x="0" y="0" width="700.000000" height="500.000000" stroke="black" fill="none" stroke-width="1"/>
 <polyline points="50.000000 49.764486 62.000000 441.729594 74.000000 445.147868 86.000000 446.559450 98.000000 447.226300 110.000000 447.975601 122.000000 448.254769 134.000000 448.597832 146.000000 448.771469 158.000000 449.011756 170.000000 449.261078 182.000000 449.339600 194.000000 449.413735 206.000000 449.394185 218.000000 449.520697 230.000000 449.546108 242.000000 449.573159 254.000000 449.601074 266.000000 449.620275 278.000000 449.634695 290.000000 449.644449 302.000000 449.658654 314.000000 449.667869 326.000000 449.676023 338.000000 449.676318 350.000000 449.689319 362.000000 449.692974 374.000000 449.697202 386.000000 449.701683 398.000000 449.705843 410.000000 449.708104 422.000000 449.710463 434.000000 449.712864 446.000000 449.716436 458.000000 449.719563 470.000000 449.721357 482.000000 449.728244 494.000000 449.694067 506.000000 449.733321 518.000000 449.738306 530.000000 449.741583 542.000000 449.745256 554.000000 449.747738 566.000000 449.749301 578.000000 449.752153 590.000000 449.756035 602.000000 449.757612 614.000000 449.758376 626.000000 449.759658 638.000000 449.763899 650.000000 449.764486 " stroke="rgb(255,0,0)" fill="none" stroke-width="2"/>
<text x="600" y="50" fill="rgb(255,0,0)">conv10.txt</text>
<line x1="50" x2="650" y1="450" y2="450" stroke="rgb(100,100,100)" stroke-width="2"/>
<line x1="50" x2="50" y1="450" y2="50" stroke="rgb(100,100,100)" stroke-width="2"/>
<text x="5" y="500" fill="rgb(0,0,0)">0.00</text>
<text x="645.000000" y="500.000000" fill="black">50.00</text>
<text x="250" y="500.000000" fill="black"> step</text>
<text x="5" y="50.000000" fill="black">2.77</text>
<text x="5" y="450.000000" fill="black">0.00</text>
<text x="5" y="250" fill="black">err</text>
</svg>
