<?xml version="1.0" standalone="no"?>
<svg width="700.000000" height="500.000000" version="1.1" xmlns="http://www.w3.org/2000/svg"    xmlns:xlink="http://www.w3.org/1999/xlink">
<rect x="0" y="0" width="700.000000" height="500.000000" stroke="black" fill="none" stroke-width="1"/>
 <polyline points="50.000000 235.981385 51.001669 240.831668 52.003339 245.226935 53.005008 249.226202 54.006678 252.881685 55.008347 256.238797 56.010017 259.336808 57.011686 262.209506 58.013356 264.885850 59.015025 267.391068 60.016694 269.746663 61.018364 271.971062 62.020033 274.080062 63.021703 276.087265 64.023372 278.004517 65.025042 279.842131 66.026711 281.608443 67.028381 283.311132 68.030050 284.956999 69.031720 286.551528 70.033389 288.099547 71.035058 289.605223 72.036728 291.072506 73.038397 292.504467 74.040067 293.903958 75.041736 295.273393 76.043406 296.614526 77.045075 297.929772 78.046745 299.220226 79.048414 300.487644 80.050083 301.732904 81.051753 302.957322 82.053422 304.161775 83.055092 305.347141 84.056761 306.513859 85.058431 307.662807 86.060100 308.794423 87.061770 309.909145 88.063439 311.007633 89.065109 312.090324 90.066778 313.157439 91.068447 314.209197 92.070117 315.246255 93.071786 316.268395 94.073456 317.276494 95.075125 318.270332 96.076795 319.250349 97.078464 320.216764 98.080134 321.169796 99.081803 322.109664 100.083472 323.036588 101.085142 323.950788 102.086811 324.852483 103.088481 325.741672 104.090150 326.618795 105.091820 327.483851 106.093489 328.337280 107.095159 329.179080 108.096828 330.009692 109.098497 330.828896 110.100167 331.637130 111.101836 332.434395 112.103506 333.221348 113.105175 333.997552 114.106845 334.763663 115.108514 335.519463 116.110184 336.265390 117.111853 337.001664 118.113523 337.728285 119.115192 338.445472 120.116861 339.153445 121.118531 339.852203 122.120200 340.541967 123.121870 341.223174 124.123539 341.895606 125.125209 342.559700 126.126878 343.215239 127.128548 343.862879 128.130217 344.502183 129.131886 345.133808 130.133556 345.757754 131.135225 346.374022 132.136895 346.982610 133.138564 347.584179 134.140234 348.178288 135.141903 348.765596 136.143573 349.345664 137.145242 349.918931 138.146912 350.485617 139.148581 351.045720 140.150250 351.599242 141.151920 352.146402 142.153589 352.687419 143.155259 353.222292 144.156928 353.751023 145.158598 354.273831 146.160267 354.790714 147.161937 355.302113 148.163606 355.807808 149.165275 356.307799 150.166945 356.802524 151.168614 357.291765 152.170284 357.775740 153.171953 358.254669 154.173623 358.728552 155.175292 359.197170 156.176962 359.661181 157.178631 360.120146 158.180301 360.574503 159.181970 361.024034 160.183639 361.468958 161.185309 361.909494 162.186978 362.345422 163.188648 362.777183 164.190317 363.204336 165.191987 363.627540 166.193656 364.046356 167.195326 364.461223 168.196995 364.871922 169.198664 365.278672 170.200334 365.681473 171.202003 366.080544 172.203673 366.475666 173.205342 366.867058 174.207012 367.254721 175.208681 367.638874 176.210351 368.019516 177.212020 368.396429 178.213689 368.770051 179.215359 369.140162 180.217028 369.506763 181.218698 369.870293 182.220367 370.230532 183.222037 370.587481 184.223706 370.941138 185.225376 371.291724 186.227045 371.639238 187.228715 371.983900 188.230384 372.325272 189.232053 372.664011 190.233723 372.999678 191.235392 373.332274 192.237062 373.662237 193.238731 373.989348 194.240401 374.313826 195.242070 374.635453 196.243740 374.954446 197.245409 375.270807 198.247078 375.584535 199.248748 375.895631 200.250417 376.204313 201.252087 376.510363 202.253756 376.814219 203.255426 377.115222 204.257095 377.414032 205.258765 377.710428 206.260434 378.004631 207.262104 378.296420 208.263773 378.585796 209.265442 378.872978 210.267112 379.157966 211.268781 379.440760 212.270451 379.721361 213.272120 379.999767 214.273790 380.276199 215.275459 380.550437 216.277129 380.822481 217.278798 381.092550 218.280467 381.360646 219.282137 381.626766 220.283806 381.890912 221.285476 382.153084 222.287145 382.413500 223.288815 382.671722 224.290484 382.928190 225.292154 383.182902 226.293823 383.435640 227.295492 383.686622 228.297162 383.935850 229.298831 384.183322 230.300501 384.429040 231.302170 384.672782 232.303840 384.914989 233.305509 385.155660 234.307179 385.394357 235.308848 385.631738 236.310518 385.867143 237.312187 386.101233 238.313856 386.333567 239.315526 386.564147 240.317195 386.793410 241.318865 387.021137 242.320534 387.247109 243.322204 387.471765 244.323873 387.694885 245.325543 387.916469 246.327212 388.136518 247.328881 388.355250 248.330551 388.572446 249.332220 388.788327 250.333890 389.002671 251.335559 389.215699 252.337229 389.427411 253.338898 389.637587 254.340568 389.846446 255.342237 390.053990 256.343907 390.260217 257.345576 390.465347 258.347245 390.668941 259.348915 390.871219 260.350584 391.072400 261.352254 391.272264 262.353923 391.470813 263.355593 391.668045 264.357262 391.864180 265.358932 392.059218 266.360601 392.252940 267.362270 392.445345 268.363940 392.636653 269.365609 392.826865 270.367279 393.015979 271.368948 393.203777 272.370618 393.390479 273.372287 393.576083 274.373957 393.760810 275.375626 393.944220 276.377295 394.126533 277.378965 394.307750 278.380634 394.487869 279.382304 394.666892 280.383973 394.845037 281.385643 395.022085 282.387312 395.198036 283.388982 395.373110 284.390651 395.547086 285.392321 395.719966 286.393990 395.891968 287.395659 396.062873 288.397329 396.232901 289.398998 396.401831 290.400668 396.569884 291.402337 396.737060 292.404007 396.903138 293.405676 397.068339 294.407346 397.232663 295.409015 397.396108 296.410684 397.558457 297.412354 397.720148 298.414023 397.880742 299.415693 398.040458 300.417362 398.199516 301.419032 398.357477 302.420701 398.514561 303.422371 398.670986 304.424040 398.826314 305.425710 398.980985 306.427379 399.134777 307.429048 399.287692 308.430718 399.439730 309.432387 399.591109 310.434057 399.741392 311.435726 399.891235 312.437396 400.039982 313.439065 400.188070 314.440735 400.335281 315.442404 400.481834 316.444073 400.627509 317.445743 400.772526 318.447412 400.916885 319.449082 401.060147 320.450751 401.202970 321.452421 401.344916 322.454090 401.486203 323.455760 401.626613 324.457429 401.766365 325.459098 401.905458 326.460768 402.043894 327.462437 402.181452 328.464107 402.318351 329.465776 402.454593 330.467446 402.590176 331.469115 402.724882 332.470785 402.859148 333.472454 402.992538 334.474124 403.125488 335.475793 403.257561 336.477462 403.388976 337.479132 403.519952 338.480801 403.650051 339.482471 403.779491 340.484140 403.908493 341.485810 404.036617 342.487479 404.164302 343.489149 404.291329 344.490818 404.417698 345.492487 404.543408 346.494157 404.668461 347.495826 404.793075 348.497496 404.917030 349.499165 405.040328 350.500835 405.162967 351.502504 405.285167 352.504174 405.406710 353.505843 405.527594 354.507513 405.648039 355.509182 405.767826 356.510851 405.886955 357.512521 406.005645 358.514190 406.123677 359.515860 406.241271 360.517529 406.358206 361.519199 406.474702 362.520868 406.590540 363.522538 406.705940 364.524207 406.820681 365.525876 406.934764 366.527546 407.048627 367.529215 407.161833 368.530885 407.274380 369.532554 407.386489 370.534224 407.498158 371.535893 407.609170 372.537563 407.719743 373.539232 407.829876 374.540902 407.939572 375.542571 408.048609 376.544240 408.157207 377.545910 408.265147 378.547579 408.372868 379.549249 408.479930 380.550918 408.586554 381.552588 408.692520 382.554257 408.798266 383.555927 408.903354 384.557596 409.008003 385.559265 409.112433 386.560935 409.216204 387.562604 409.319318 388.564274 409.422212 389.565943 409.524667 390.567613 409.626464 391.569282 409.728042 392.570952 409.828962 393.572621 409.929662 394.574290 410.029704 395.575960 410.129527 396.577629 410.228691 397.579299 410.327417 398.580968 410.425923 399.582638 410.523771 400.584307 410.621400 401.585977 410.718590 402.587646 410.815122 403.589316 410.911434 404.590985 411.007307 405.592654 411.102742 406.594324 411.197738 407.595993 411.292515 408.597663 411.386633 409.599332 411.480533 410.601002 411.573773 411.602671 411.666795 412.604341 411.759378 413.606010 411.851741 414.607679 411.943446 415.609349 412.034932 416.611018 412.125979 417.612688 412.216807 418.614357 412.306976 419.616027 412.396926 420.617696 412.486437 421.619366 412.575729 422.621035 412.664363 423.622705 412.752777 424.624374 412.840972 425.626043 412.928509 426.627713 413.015826 427.629382 413.102924 428.631052 413.189584 429.632721 413.275804 430.634391 413.361586 431.636060 413.447148 432.637730 413.532271 433.639399 413.617176 434.641068 413.701641 435.642738 413.785887 436.644407 413.869694 437.646077 413.953062 438.647746 414.036211 439.649416 414.118921 440.651085 414.201412 441.652755 414.283464 442.654424 414.365297 443.656093 414.446910 444.657763 414.527865 445.659432 414.608820 446.661102 414.689336 447.662771 414.769414 448.664441 414.849272 449.666110 414.928691 450.667780 415.007891 451.669449 415.086872 452.671119 415.165414 453.672788 415.243736 454.674457 415.321619 455.676127 415.399284 456.677796 415.476728 457.679466 415.553735 458.681135 415.630521 459.682805 415.706869 460.684474 415.782997 461.686144 415.858907 462.687813 415.934377 463.689482 416.009628 464.691152 416.084659 465.692821 416.159471 466.694491 416.233845 467.696160 416.307779 468.697830 416.381714 469.699499 416.455210 470.701169 416.528486 471.702838 416.601324 472.704508 416.674161 473.706177 416.746560 474.707846 416.818739 475.709516 416.890480 476.711185 416.962001 477.712855 417.033303 478.714524 417.104386 479.716194 417.175249 480.717863 417.245673 481.719533 417.315878 482.721202 417.385864 483.722871 417.455630 484.724541 417.524957 485.726210 417.594285 486.727880 417.663173 487.729549 417.731842 488.731219 417.800292 489.732888 417.868303 490.734558 417.936314 491.736227 418.003886 492.737896 418.071459 493.739566 418.138592 494.741235 418.205506 495.742905 418.271981 496.744574 418.338457 497.746244 418.404713 498.747913 418.470530 499.749583 418.536347 500.751252 418.601725 501.752922 418.666884 502.754591 418.731824 503.756260 418.796544 504.757930 418.861045 505.759599 418.925326 506.761269 418.989388 507.762938 419.053011 508.764608 419.116634 509.766277 419.180038 510.767947 419.243003 511.769616 419.305968 512.771285 419.368495 513.772955 419.431021 514.774624 419.493108 515.776294 419.555196 516.777963 419.616845 517.779633 419.678493 518.781302 419.739703 519.782972 419.800913 520.784641 419.861684 521.786311 419.922455 522.787980 419.982788 523.789649 420.043120 524.791319 420.103014 525.792988 420.162907 526.794658 420.222581 527.796327 420.281817 528.797997 420.341052 529.799666 420.400068 530.801336 420.458865 531.803005 420.517223 532.804674 420.575581 533.806344 420.633719 534.808013 420.691857 535.809683 420.749557 536.811352 420.807037 537.813022 420.864298 538.814691 420.921559 539.816361 420.978381 540.818030 421.035203 541.819699 421.091806 542.821369 421.148189 543.823038 421.204353 544.824708 421.260298 545.826377 421.316023 546.828047 421.371529 547.829716 421.427035 548.831386 421.482321 549.833055 421.537169 550.834725 421.592016 551.836394 421.646644 552.838063 421.701273 553.839733 421.755462 554.841402 421.809651 555.843072 421.863402 556.844741 421.917153 557.846411 421.970684 558.848080 422.023996 559.849750 422.077308 560.851419 422.130400 561.853088 422.183054 562.854758 422.235708 563.856427 422.288361 564.858097 422.340576 565.859766 422.392572 566.861436 422.444567 567.863105 422.496343 568.864775 422.548119 569.866444 422.599457 570.868114 422.650794 571.869783 422.701912 572.871452 422.752811 573.873122 422.803490 574.874791 422.854169 575.876461 422.904629 576.878130 422.954869 577.879800 423.004890 578.881469 423.054911 579.883139 423.104494 580.884808 423.154076 581.886477 423.203658 582.888147 423.252801 583.889816 423.301945 584.891486 423.351088 585.893155 423.399793 586.894825 423.448498 587.896494 423.496983 588.898164 423.545249 589.899833 423.593515 590.901503 423.641342 591.903172 423.689388 592.904841 423.736996 593.906511 423.784604 594.908180 423.831992 595.909850 423.879161 596.911519 423.926330 597.913189 423.973279 598.914858 424.020010 599.916528 424.066740 600.918197 424.113251 601.919866 424.159542 602.921536 424.205833 603.923205 424.251905 604.924875 424.297758 605.926544 424.343610 606.928214 424.389244 607.929883 424.434657 608.931553 424.480071 609.933222 424.525266 610.934891 424.570241 611.936561 424.615216 612.938230 424.659971 613.939900 424.704508 614.941569 424.749044 615.943239 424.793361 616.944908 424.837678 617.946578 424.881775 618.948247 424.925653 619.949917 424.969531 620.951586 425.013190 621.953255 425.056629 622.954925 425.100068 623.956594 425.143288 624.958264 425.186508 625.959933 425.229509 626.961603 425.272290 627.963272 425.315071 628.964942 425.357633 629.966611 425.400195 630.968280 425.442537 631.969950 425.484660 632.971619 425.526783 633.973289 425.568686 634.974958 425.610590 635.976628 425.652274 636.978297 425.693739 637.979967 425.735204 638.981636 425.776668 639.983306 425.817694 640.984975 425.858940 641.986644 425.899746 642.988314 425.940553 643.989983 425.981360 644.991653 426.021947 645.993322 426.062315 646.994992 426.102683 647.996661 426.142831 648.998331 426.182979 650.000000 426.222908 " stroke="rgb(255,0,0)" fill="none" stroke-width="2"/>
 <polyline points="50.000000 271.249707 51.001669 288.159879 52.003339 301.566606 53.005008 313.241685 54.006678 323.411965 55.008347 332.229484 56.010017 339.891036 57.011686 346.588585 58.013356 352.486896 59.015025 357.721989 60.016694 362.402683 61.018364 366.617173 62.020033 370.436321 63.021703 373.917388 64.023372 377.106447 65.025042 380.042109 66.026711 382.755530 67.028381 385.273034 68.030050 387.616562 69.031720 389.804982 70.033389 391.853649 71.035058 393.776606 72.036728 395.585480 73.038397 397.290582 74.040067 398.900688 75.041736 400.423915 76.043406 401.867065 77.045075 403.236500 78.046745 404.537704 79.048414 405.775505 80.050083 406.954728 81.051753 408.079104 82.053422 409.152142 83.055092 410.177573 84.056761 411.158467 85.058431 412.097239 86.060100 412.996520 87.061770 413.858944 88.063439 414.686484 89.065109 415.480897 90.066778 416.244375 91.068447 416.978675 92.070117 417.685112 93.071786 418.365222 94.073456 419.020322 95.075125 419.651947 96.076795 420.261194 97.078464 420.848941 98.080134 421.416504 99.081803 421.964541 100.083472 422.494369 101.085142 423.006645 102.086811 423.502248 103.088481 423.982055 104.090150 424.446285 105.091820 424.896255 106.093489 425.331964 107.095159 425.754729 108.096828 426.164551 109.098497 426.562086 110.100167 426.947994 111.101836 427.322713 112.103506 427.686462 113.105175 428.040119 114.106845 428.383728 115.108514 428.717816 116.110184 429.042755 117.111853 429.358875 118.113523 429.666504 119.115192 429.965994 120.116861 430.257607 121.118531 430.541674 122.120200 430.818435 123.121870 431.088154 124.123539 431.351115 125.125209 431.607516 126.126878 431.857622 127.128548 432.101628 128.130217 432.339732 129.131886 432.572176 130.133556 432.799113 131.135225 433.020742 132.136895 433.237236 133.138564 433.448750 134.140234 433.655460 135.141903 433.857518 136.143573 434.055080 137.145242 434.248275 138.146912 434.437236 139.148581 434.622094 140.150250 434.802981 141.151920 434.980029 142.153589 435.153348 143.155259 435.323024 144.156928 435.489191 145.158598 435.651934 146.160267 435.811365 147.161937 435.967571 148.163606 436.120662 149.165275 436.270725 150.166945 436.417826 151.168614 436.562054 152.170284 436.703494 153.171953 436.842215 154.173623 436.978303 155.175292 437.111802 156.176962 437.242822 157.178631 437.371407 158.180301 437.497622 159.181970 437.621512 160.183639 437.743164 161.185309 437.862644 162.186978 437.979974 163.188648 438.095241 164.190317 438.208469 165.191987 438.319722 166.193656 438.429044 167.195326 438.536479 168.196995 438.642094 169.198664 438.745931 170.200334 438.848014 171.202003 438.948385 172.203673 439.047110 173.205342 439.144191 174.207012 439.239713 175.208681 439.333656 176.210351 439.426107 177.212020 439.517088 178.213689 439.606600 179.215359 439.694707 180.217028 439.781454 181.218698 439.866841 182.220367 439.950911 183.222037 440.033687 184.223706 440.115191 185.225376 440.195487 186.227045 440.274556 187.228715 440.352461 188.230384 440.429204 189.232053 440.504806 190.233723 440.579311 191.235392 440.652719 192.237062 440.725074 193.238731 440.796398 194.240401 440.866712 195.242070 440.935996 196.243740 441.004336 197.245409 441.071711 198.247078 441.138142 199.248748 441.203652 200.250417 441.268263 201.252087 441.331995 202.253756 441.394851 203.255426 441.456872 204.257095 441.518060 205.258765 441.578437 206.260434 441.638001 207.262104 441.696776 208.263773 441.754783 209.265442 441.812044 210.267112 441.868559 211.268781 441.924349 212.270451 441.979416 213.272120 442.033803 214.273790 442.087488 215.275459 442.140493 216.277129 442.192839 217.278798 442.244528 218.280467 442.295580 219.282137 442.346018 220.283806 442.395819 221.285476 442.445029 222.287145 442.493624 223.288815 442.541648 224.290484 442.589102 225.292154 442.635986 226.293823 442.682299 227.295492 442.728086 228.297162 442.773324 229.298831 442.818036 230.300501 442.862243 231.302170 442.905924 232.303840 442.949122 233.305509 442.991815 234.307179 443.034004 235.308848 443.075754 236.310518 443.117000 237.312187 443.157806 238.313856 443.198152 239.315526 443.238059 240.317195 443.277506 241.318865 443.316535 242.320534 443.355126 243.322204 443.393322 244.323873 443.431079 245.325543 443.468441 246.327212 443.505408 247.328881 443.541981 248.330551 443.578158 249.332220 443.613963 250.333890 443.649394 251.335559 443.684431 252.337229 443.719138 253.338898 443.753473 254.340568 443.787435 255.342237 443.821067 256.343907 443.854349 257.345576 443.887301 258.347245 443.919924 259.348915 443.952197 260.350584 443.984162 261.352254 444.015820 262.353923 444.047149 263.355593 444.078171 264.357262 444.108885 265.358932 444.139293 266.360601 444.169415 267.362270 444.199252 268.363940 444.228782 269.365609 444.258049 270.367279 444.287008 271.368948 444.315705 272.370618 444.344138 273.372287 444.372286 274.373957 444.400192 275.375626 444.427813 276.377295 444.455193 277.378965 444.482310 278.380634 444.509163 279.382304 444.535797 280.383973 444.562168 281.385643 444.588297 282.387312 444.614207 283.388982 444.639854 284.390651 444.665281 285.392321 444.690489 286.393990 444.715478 287.395659 444.740225 288.397329 444.764753 289.398998 444.789083 290.400668 444.813172 291.402337 444.837064 292.404007 444.860758 293.405676 444.884233 294.407346 444.907510 295.409015 444.930590 296.410684 444.953451 297.412354 444.976136 298.414023 444.998623 299.415693 445.020913 300.417362 445.043028 301.419032 445.064945 302.420701 445.086686 303.422371 445.108231 304.424040 445.129599 305.425710 445.150792 306.427379 445.171832 307.429048 445.192674 308.430718 445.213362 309.432387 445.233854 310.434057 445.254213 311.435726 445.274375 312.437396 445.294383 313.439065 445.314238 314.440735 445.333939 315.442404 445.353465 316.444073 445.372859 317.445743 445.392078 318.447412 445.411165 319.449082 445.430076 320.450751 445.448856 321.452421 445.467482 322.454090 445.485977 323.455760 445.504318 324.457429 445.522505 325.459098 445.540561 326.460768 445.558485 327.462437 445.576278 328.464107 445.593917 329.465776 445.611424 330.467446 445.628822 331.469115 445.646066 332.470785 445.663179 333.472454 445.680181 334.474124 445.697030 335.475793 445.713770 336.477462 445.730400 337.479132 445.746876 338.480801 445.763264 339.482471 445.779499 340.484140 445.795646 341.485810 445.811662 342.487479 445.827546 343.489149 445.843342 344.490818 445.859006 345.492487 445.874561 346.494157 445.890006 347.495826 445.905342 348.497496 445.920567 349.499165 445.935683 350.500835 445.950690 351.502504 445.965586 352.504174 445.980395 353.505843 445.995094 354.507513 446.009684 355.509182 446.024164 356.510851 446.038556 357.512521 446.052860 358.514190 446.067054 359.515860 446.081139 360.517529 446.095136 361.519199 446.109046 362.520868 446.122867 363.522538 446.136579 364.524207 446.150203 365.525876 446.163718 366.527546 446.177166 367.529215 446.190505 368.530885 446.203778 369.532554 446.216942 370.534224 446.230039 371.535893 446.243027 372.537563 446.255949 373.539232 446.268784 374.540902 446.281508 375.542571 446.294189 376.544240 446.306760 377.545910 446.319244 378.547579 446.331661 379.549249 446.344013 380.550918 446.356255 381.552588 446.368431 382.554257 446.380541 383.555927 446.392564 384.557596 446.404499 385.559265 446.416368 386.560935 446.428171 387.562604 446.439886 388.564274 446.451536 389.565943 446.463120 390.567613 446.474616 391.569282 446.486046 392.570952 446.497411 393.572621 446.508687 394.574290 446.519920 395.575960 446.531065 396.577629 446.542144 397.579299 446.553158 398.580968 446.564105 399.582638 446.574987 400.584307 446.585803 401.585977 446.596553 402.587646 446.607215 403.589316 446.617834 404.590985 446.628409 405.592654 446.638895 406.594324 446.649316 407.595993 446.659694 408.597663 446.670005 409.599332 446.680250 410.601002 446.690430 411.602671 446.700544 412.604341 446.710614 413.606010 446.720618 414.607679 446.730557 415.609349 446.740451 416.611018 446.750280 417.612688 446.760065 418.614357 446.769784 419.616027 446.779437 420.617696 446.789046 421.619366 446.798612 422.621035 446.808111 423.622705 446.817545 424.624374 446.826935 425.626043 446.836281 426.627713 446.845561 427.629382 446.854797 428.631052 446.863968 429.632721 446.873095 430.634391 446.882177 431.636060 446.891194 432.637730 446.900189 433.639399 446.909119 434.641068 446.917982 435.642738 446.926823 436.644407 446.935599 437.646077 446.944331 438.647746 446.953019 439.649416 446.961641 440.651085 446.970241 441.652755 446.978775 442.654424 446.987265 443.656093 446.995734 444.657763 447.004136 445.659432 447.012495 446.661102 447.020810 447.662771 447.029081 448.664441 447.037308 449.666110 447.045492 450.667780 447.053631 451.669449 447.061726 452.671119 447.069778 453.672788 447.077786 454.674457 447.085750 455.676127 447.093670 456.677796 447.101568 457.679466 447.109400 458.681135 447.117210 459.682805 447.124977 460.684474 447.132699 461.686144 447.140378 462.687813 447.148013 463.689482 447.155626 464.691152 447.163173 465.692821 447.170698 466.694491 447.178201 467.696160 447.185638 468.697830 447.193054 469.699499 447.200425 470.701169 447.207775 471.702838 447.215058 472.704508 447.222320 473.706177 447.229560 474.707846 447.236734 475.709516 447.243886 476.711185 447.251016 477.712855 447.258103 478.714524 447.265145 479.716194 447.272166 480.717863 447.279142 481.719533 447.286075 482.721202 447.292986 483.722871 447.299875 484.724541 447.306698 485.726210 447.313521 486.727880 447.320300 487.729549 447.327035 488.731219 447.333749 489.732888 447.340418 490.734558 447.347066 491.736227 447.353669 492.737896 447.360251 493.739566 447.366811 494.741235 447.373327 495.742905 447.379821 496.744574 447.386271 497.746244 447.392699 498.747913 447.399083 499.749583 447.405445 500.751252 447.411786 501.752922 447.418104 502.754591 447.424379 503.756260 447.430609 504.757930 447.436840 505.759599 447.443027 506.761269 447.449170 507.762938 447.455313 508.764608 447.461412 509.766277 447.467489 510.767947 447.473522 511.769616 447.479555 512.771285 447.485545 513.772955 447.491512 514.774624 447.497436 515.776294 447.503337 516.777963 447.509217 517.779633 447.515075 518.781302 447.520911 519.782972 447.526702 520.784641 447.532494 521.786311 447.538242 522.787980 447.543968 523.789649 447.549651 524.791319 447.555333 525.792988 447.560971 526.794658 447.566588 527.796327 447.572204 528.797997 447.577777 529.799666 447.583305 530.801336 447.588834 531.803005 447.594341 532.804674 447.599803 533.806344 447.605266 534.808013 447.610685 535.809683 447.616082 536.811352 447.621457 537.813022 447.626810 538.814691 447.632141 539.816361 447.637451 540.818030 447.642738 541.819699 447.648003 542.821369 447.653247 543.823038 447.658468 544.824708 447.663668 545.826377 447.668845 546.828047 447.673979 547.829716 447.679113 548.831386 447.684225 549.833055 447.689315 550.834725 447.694361 551.836394 447.699407 552.838063 447.704431 553.839733 447.709433 554.841402 447.714413 555.843072 447.719371 556.844741 447.724307 557.846411 447.729222 558.848080 447.734114 559.849750 447.738985 560.851419 447.743855 561.853088 447.748682 562.854758 447.753508 563.856427 447.758291 564.858097 447.763074 565.859766 447.767812 566.861436 447.772551 567.863105 447.777268 568.864775 447.781963 569.866444 447.786658 570.868114 447.791309 571.869783 447.795938 572.871452 447.800567 573.873122 447.805175 574.874791 447.809756 575.876461 447.814321 576.878130 447.818867 577.879800 447.823395 578.881469 447.827906 579.883139 447.832399 580.884808 447.836872 581.886477 447.841328 582.888147 447.845766 583.889816 447.850187 584.891486 447.854590 585.893155 447.858976 586.894825 447.863344 587.896494 447.867697 588.898164 447.872030 589.899833 447.876347 590.901503 447.880647 591.903172 447.884930 592.904841 447.889197 593.906511 447.893446 594.908180 447.897678 595.909850 447.901895 596.911519 447.906096 597.913189 447.910280 598.914858 447.914446 599.916528 447.918600 600.918197 447.922735 601.919866 447.926855 602.921536 447.930958 603.923205 447.935047 604.924875 447.939119 605.926544 447.943176 606.928214 447.947217 607.929883 447.951245 608.931553 447.955255 609.933222 447.959250 610.934891 447.963230 611.936561 447.967197 612.938230 447.971148 613.939900 447.975082 614.941569 447.979004 615.943239 447.982909 616.944908 447.986801 617.946578 447.990678 618.948247 447.994539 619.949917 447.998387 620.951586 448.002222 621.953255 448.006042 622.954925 448.009846 623.956594 448.013637 624.958264 448.017415 625.959933 448.021178 626.961603 448.024929 627.963272 448.028663 628.964942 448.032386 629.966611 448.036094 630.968280 448.039789 631.969950 448.043470 632.971619 448.047138 633.973289 448.050793 634.974958 448.054435 635.976628 448.058064 636.978297 448.061677 637.979967 448.065280 638.981636 448.068869 639.983306 448.072445 640.984975 448.076008 641.986644 448.079560 642.988314 448.083096 643.989983 448.086622 644.991653 448.090134 645.993322 448.093634 646.994992 448.097122 647.996661 448.100597 648.998331 448.104061 650.000000 448.107510 " stroke="rgb(0,255,0)" fill="none" stroke-width="2"/>
 <polyline points="50.000000 258.256311 51.001669 322.186231 52.003339 269.873251 53.005008 240.613155 54.006678 249.318346 55.008347 283.649651 56.010017 400.194872 57.011686 398.485820 58.013356 364.206072 59.015025 292.855053 60.016694 420.785537 61.018364 418.440034 62.020033 410.088501 63.021703 398.539791 64.023372 376.953093 65.025042 366.766578 66.026711 383.230949 67.028381 401.862019 68.030050 416.514006 69.031720 438.727239 70.033389 442.302030 71.035058 442.775014 72.036728 442.996181 73.038397 443.204602 74.040067 443.401549 75.041736 443.587921 76.043406 443.764530 77.045075 443.932123 78.046745 444.091334 79.048414 444.242779 80.050083 444.386985 81.051753 444.524455 82.053422 444.655650 83.055092 444.780966 84.056761 444.900775 85.058431 445.015428 86.060100 445.125255 87.061770 445.230563 88.063439 445.331570 89.065109 445.428562 90.066778 445.521781 91.068447 445.611402 92.070117 445.697645 93.071786 445.780706 94.073456 445.860740 95.075125 445.937899 96.076795 446.012338 97.078464 446.084211 98.080134 446.153626 99.081803 446.220693 100.083472 446.285567 101.085142 446.348335 102.086811 446.409084 103.088481 446.467903 104.090150 446.524922 105.091820 446.580165 106.093489 446.633762 107.095159 446.685735 108.096828 446.736217 109.098497 446.785207 110.100167 446.832815 111.101836 446.879062 112.103506 446.924037 113.105175 446.967762 114.106845 447.010323 115.108514 447.051722 116.110184 447.092046 117.111853 447.131295 118.113523 447.169557 119.115192 447.206831 120.116861 447.243162 121.118531 447.278594 122.120200 447.313148 123.121870 447.346868 124.123539 447.379777 125.125209 447.411917 126.126878 447.443290 127.128548 447.473939 128.130217 447.503864 129.131886 447.533131 130.133556 447.561739 131.135225 447.589711 132.136895 447.617047 133.138564 447.643813 134.140234 447.669986 135.141903 447.695611 136.143573 447.720687 137.145242 447.745237 138.146912 447.769282 139.148581 447.792845 140.150250 447.815909 141.151920 447.838518 142.153589 447.860678 143.155259 447.882400 144.156928 447.903699 145.158598 447.924582 146.160267 447.945067 147.161937 447.965163 148.163606 447.984880 149.165275 448.004225 150.166945 448.023216 151.168614 448.041857 152.170284 448.060161 153.171953 448.078134 154.173623 448.095784 155.175292 448.113122 156.176962 448.130155 157.178631 448.146893 158.180301 448.163340 159.181970 448.179505 160.183639 448.195396 161.185309 448.211018 162.186978 448.226380 163.188648 448.241487 164.190317 448.256344 165.191987 448.270960 166.193656 448.285337 167.195326 448.299483 168.196995 448.313406 169.198664 448.327107 170.200334 448.340590 171.202003 448.353866 172.203673 448.366935 173.205342 448.379804 174.207012 448.392476 175.208681 448.404955 176.210351 448.417250 177.212020 448.429358 178.213689 448.441286 179.215359 448.453041 180.217028 448.464623 181.218698 448.476038 182.220367 448.487288 183.222037 448.498376 184.223706 448.509306 185.225376 448.520085 186.227045 448.530710 187.228715 448.541188 188.230384 448.551519 189.232053 448.561710 190.233723 448.571762 191.235392 448.581676 192.237062 448.591459 193.238731 448.601110 194.240401 448.610631 195.242070 448.620028 196.243740 448.629302 197.245409 448.638452 198.247078 448.647487 199.248748 448.656403 200.250417 448.665205 201.252087 448.673897 202.253756 448.682477 203.255426 448.690950 204.257095 448.699316 205.258765 448.707580 206.260434 448.715739 207.262104 448.723800 208.263773 448.731763 209.265442 448.739629 210.267112 448.747399 211.268781 448.755076 212.270451 448.762662 213.272120 448.770159 214.273790 448.777566 215.275459 448.784887 216.277129 448.792122 217.278798 448.799274 218.280467 448.806343 219.282137 448.813333 220.283806 448.820241 221.285476 448.827071 222.287145 448.833824 223.288815 448.840502 224.290484 448.847106 225.292154 448.853635 226.293823 448.860091 227.295492 448.866480 228.297162 448.872796 229.298831 448.879045 230.300501 448.885227 231.302170 448.891341 232.303840 448.897390 233.305509 448.903375 234.307179 448.909296 235.308848 448.915156 236.310518 448.920955 237.312187 448.926692 238.313856 448.932370 239.315526 448.937988 240.317195 448.943552 241.318865 448.949056 242.320534 448.954506 243.322204 448.959899 244.323873 448.965239 245.325543 448.970524 246.327212 448.975758 247.328881 448.980940 248.330551 448.986070 249.332220 448.991151 250.333890 448.996181 251.335559 449.001162 252.337229 449.006096 253.338898 449.010982 254.340568 449.015819 255.342237 449.020611 256.343907 449.025358 257.345576 449.030060 258.347245 449.034717 259.348915 449.039331 260.350584 449.043903 261.352254 449.048431 262.353923 449.052918 263.355593 449.057363 264.357262 449.061768 265.358932 449.066132 266.360601 449.070456 267.362270 449.074743 268.363940 449.078988 269.365609 449.083198 270.367279 449.087369 271.368948 449.091502 272.370618 449.095600 273.372287 449.099661 274.373957 449.103687 275.375626 449.107678 276.377295 449.111633 277.378965 449.115556 278.380634 449.119444 279.382304 449.123296 280.383973 449.127118 281.385643 449.130907 282.387312 449.134663 283.388982 449.138388 284.390651 449.142083 285.392321 449.145744 286.393990 449.149375 287.395659 449.152978 288.397329 449.156549 289.398998 449.160092 290.400668 449.163605 291.402337 449.167089 292.404007 449.170546 293.405676 449.173973 294.407346 449.177374 295.409015 449.180748 296.410684 449.184094 297.412354 449.187413 298.414023 449.190704 299.415693 449.193971 300.417362 449.197211 301.419032 449.200427 302.420701 449.203617 303.422371 449.206783 304.424040 449.209923 305.425710 449.213038 306.427379 449.216131 307.429048 449.219198 308.430718 449.222244 309.432387 449.225265 310.434057 449.228264 311.435726 449.231241 312.437396 449.234194 313.439065 449.237125 314.440735 449.240034 315.442404 449.242921 316.444073 449.245786 317.445743 449.248632 318.447412 449.251455 319.449082 449.254257 320.450751 449.257041 321.452421 449.259801 322.454090 449.262543 323.455760 449.265266 324.457429 449.267967 325.459098 449.270650 326.460768 449.273313 327.462437 449.275959 328.464107 449.278583 329.465776 449.281192 330.467446 449.283778 331.469115 449.286349 332.470785 449.288901 333.472454 449.291435 334.474124 449.293951 335.475793 449.296450 336.477462 449.298931 337.479132 449.301397 338.480801 449.303844 339.482471 449.306274 340.484140 449.308690 341.485810 449.311086 342.487479 449.313468 343.489149 449.315833 344.490818 449.318181 345.492487 449.320515 346.494157 449.322832 347.495826 449.325135 348.497496 449.327421 349.499165 449.329692 350.500835 449.331950 351.502504 449.334192 352.504174 449.336419 353.505843 449.338630 354.507513 449.340828 355.509182 449.343011 356.510851 449.345181 357.512521 449.347336 358.514190 449.349477 359.515860 449.351605 360.517529 449.353718 361.519199 449.355819 362.520868 449.357906 363.522538 449.359979 364.524207 449.362039 365.525876 449.364086 366.527546 449.366122 367.529215 449.368143 368.530885 449.370152 369.532554 449.372149 370.534224 449.374134 371.535893 449.376104 372.537563 449.378066 373.539232 449.380012 374.540902 449.381949 375.542571 449.383871 376.544240 449.385784 377.545910 449.387684 378.547579 449.389573 379.549249 449.391451 380.550918 449.393315 381.552588 449.395171 382.554257 449.397014 383.555927 449.398846 384.557596 449.400669 385.559265 449.402479 386.560935 449.404281 387.562604 449.406069 388.564274 449.407848 389.565943 449.409616 390.567613 449.411373 391.569282 449.413122 392.570952 449.414860 393.572621 449.416586 394.574290 449.418304 395.575960 449.420011 396.577629 449.421709 397.579299 449.423396 398.580968 449.425074 399.582638 449.426744 400.584307 449.428402 401.585977 449.430052 402.587646 449.431693 403.589316 449.433323 404.590985 449.434945 405.592654 449.436557 406.594324 449.438161 407.595993 449.439756 408.597663 449.441342 409.599332 449.442920 410.601002 449.444488 411.602671 449.446046 412.604341 449.447597 413.606010 449.449139 414.607679 449.450675 415.609349 449.452200 416.611018 449.453716 417.612688 449.455225 418.614357 449.456726 419.616027 449.458220 420.617696 449.459703 421.619366 449.461179 422.621035 449.462649 423.622705 449.464108 424.624374 449.465563 425.626043 449.467006 426.627713 449.468446 427.629382 449.469874 428.631052 449.471298 429.632721 449.472713 430.634391 449.474119 431.636060 449.475519 432.637730 449.476912 433.639399 449.478296 434.641068 449.479676 435.642738 449.481045 436.644407 449.482410 437.646077 449.483768 438.647746 449.485117 439.649416 449.486460 440.651085 449.487796 441.652755 449.489125 442.654424 449.490448 443.656093 449.491762 444.657763 449.493072 445.659432 449.494373 446.661102 449.495670 447.662771 449.496960 448.664441 449.498241 449.666110 449.499518 450.667780 449.500788 451.669449 449.502052 452.671119 449.503309 453.672788 449.504559 454.674457 449.505806 455.676127 449.507043 456.677796 449.508276 457.679466 449.509502 458.681135 449.510722 459.682805 449.511938 460.684474 449.513146 461.686144 449.514349 462.687813 449.515547 463.689482 449.516736 464.691152 449.517923 465.692821 449.519101 466.694491 449.520274 467.696160 449.521444 468.697830 449.522607 469.699499 449.523763 470.701169 449.524915 471.702838 449.526060 472.704508 449.527201 473.706177 449.528337 474.707846 449.529467 475.709516 449.530590 476.711185 449.531709 477.712855 449.532824 478.714524 449.533934 479.716194 449.535037 480.717863 449.536134 481.719533 449.537229 482.721202 449.538317 483.722871 449.539399 484.724541 449.540478 485.726210 449.541551 486.727880 449.542619 487.729549 449.543683 488.731219 449.544741 489.732888 449.545794 490.734558 449.546843 491.736227 449.547887 492.737896 449.548927 493.739566 449.549962 494.741235 449.550991 495.742905 449.552018 496.744574 449.553038 497.746244 449.554054 498.747913 449.555065 499.749583 449.556072 500.751252 449.557075 501.752922 449.558073 502.754591 449.559067 503.756260 449.560056 504.757930 449.561042 505.759599 449.562022 506.761269 449.562998 507.762938 449.563970 508.764608 449.564938 509.766277 449.565901 510.767947 449.566860 511.769616 449.567816 512.771285 449.568766 513.772955 449.569714 514.774624 449.570657 515.776294 449.571594 516.777963 449.572529 517.779633 449.573461 518.781302 449.574387 519.782972 449.575311 520.784641 449.576228 521.786311 449.577143 522.787980 449.578053 523.789649 449.578961 524.791319 449.579865 525.792988 449.580765 526.794658 449.581660 527.796327 449.582551 528.797997 449.583439 529.799666 449.584323 530.801336 449.585205 531.803005 449.586081 532.804674 449.586954 533.806344 449.587825 534.808013 449.588691 535.809683 449.589553 536.811352 449.590411 537.813022 449.591267 538.814691 449.592118 539.816361 449.592967 540.818030 449.593812 541.819699 449.594654 542.821369 449.595492 543.823038 449.596326 544.824708 449.597158 545.826377 449.597985 546.828047 449.598810 547.829716 449.599630 548.831386 449.600448 549.833055 449.601262 550.834725 449.602074 551.836394 449.602881 552.838063 449.603687 553.839733 449.604487 554.841402 449.605286 555.843072 449.606082 556.844741 449.606874 557.846411 449.607662 558.848080 449.608450 559.849750 449.609231 560.851419 449.610012 561.853088 449.610788 562.854758 449.611561 563.856427 449.612331 564.858097 449.613098 565.859766 449.613862 566.861436 449.614623 567.863105 449.615382 568.864775 449.616139 569.866444 449.616892 570.868114 449.617640 571.869783 449.618388 572.871452 449.619132 573.873122 449.619873 574.874791 449.620610 575.876461 449.621345 576.878130 449.622078 577.879800 449.622809 578.881469 449.623535 579.883139 449.624259 580.884808 449.624981 581.886477 449.625700 582.888147 449.626415 583.889816 449.627128 584.891486 449.627839 585.893155 449.628548 586.894825 449.629252 587.896494 449.629956 588.898164 449.630656 589.899833 449.631354 590.901503 449.632047 591.903172 449.632740 592.904841 449.633429 593.906511 449.634116 594.908180 449.634801 595.909850 449.635483 596.911519 449.636163 597.913189 449.636841 598.914858 449.637514 599.916528 449.638188 600.918197 449.638857 601.919866 449.639524 602.921536 449.640189 603.923205 449.640851 604.924875 449.641512 605.926544 449.642168 606.928214 449.642824 607.929883 449.643475 608.931553 449.644127 609.933222 449.644774 610.934891 449.645421 611.936561 449.646064 612.938230 449.646705 613.939900 449.647343 614.941569 449.647982 615.943239 449.648616 616.944908 449.649247 617.946578 449.649877 618.948247 449.650505 619.949917 449.651130 620.951586 449.651753 621.953255 449.652374 622.954925 449.652992 623.956594 449.653609 624.958264 449.654223 625.959933 449.654835 626.961603 449.655445 627.963272 449.656053 628.964942 449.656661 629.966611 449.657264 630.968280 449.657865 631.969950 449.658464 632.971619 449.659063 633.973289 449.659657 634.974958 449.660252 635.976628 449.660842 636.978297 449.661432 637.979967 449.662020 638.981636 449.662604 639.983306 449.663187 640.984975 449.663769 641.986644 449.664348 642.988314 449.664925 643.989983 449.665502 644.991653 449.666075 645.993322 449.666647 646.994992 449.667215 647.996661 449.667784 648.998331 449.668350 650.000000 449.668914 " stroke="rgb(0,0,255)" fill="none" stroke-width="2"/>
 <polyline points="50.000000 233.367568 51.001669 234.602955 52.003339 237.389872 53.005008 246.798867 54.006678 321.151147 55.008347 49.856065 56.010017 421.253058 57.011686 366.381328 58.013356 62.111212 59.015025 392.900141 60.016694 251.749192 61.018364 379.369897 62.020033 130.420603 63.021703 365.347122 64.023372 189.960960 65.025042 259.023080 66.026711 431.092059 67.028381 445.689505 68.030050 448.274381 69.031720 448.698144 70.033389 448.865192 71.035058 448.942497 72.036728 448.982140 73.038397 449.005049 74.040067 449.020396 75.041736 449.032287 76.043406 449.042561 77.045075 449.052043 78.046745 449.061090 79.048414 449.069868 80.050083 449.078442 81.051753 449.086849 82.053422 449.095102 83.055092 449.103209 84.056761 449.111175 85.058431 449.119005 86.060100 449.126701 87.061770 449.134266 88.063439 449.141705 89.065109 449.149020 90.066778 449.156214 91.068447 449.163289 92.070117 449.170248 93.071786 449.177095 94.073456 449.183830 95.075125 449.190460 96.076795 449.196985 97.078464 449.203404 98.080134 449.209727 99.081803 449.215949 100.083472 449.222077 101.085142 449.228112 102.086811 449.234053 103.088481 449.239907 104.090150 449.245672 105.091820 449.251352 106.093489 449.256951 107.095159 449.262464 108.096828 449.267901 109.098497 449.273256 110.100167 449.278537 111.101836 449.283743 112.103506 449.288875 113.105175 449.293934 114.106845 449.298923 115.108514 449.303844 116.110184 449.308696 117.111853 449.313484 118.113523 449.318205 119.115192 449.322865 120.116861 449.327459 121.118531 449.331996 122.120200 449.336469 123.121870 449.340885 124.123539 449.345245 125.125209 449.349547 126.126878 449.353794 127.128548 449.357987 128.130217 449.362127 129.131886 449.366214 130.133556 449.370251 131.135225 449.374237 132.136895 449.378173 133.138564 449.382061 134.140234 449.385900 135.141903 449.389695 136.143573 449.393443 137.145242 449.397144 138.146912 449.400803 139.148581 449.404417 140.150250 449.407988 141.151920 449.411518 142.153589 449.415006 143.155259 449.418455 144.156928 449.421865 145.158598 449.425232 146.160267 449.428563 147.161937 449.431856 148.163606 449.435111 149.165275 449.438330 150.166945 449.441513 151.168614 449.444661 152.170284 449.447775 153.171953 449.450853 154.173623 449.453898 155.175292 449.456910 156.176962 449.459889 157.178631 449.462836 158.180301 449.465751 159.181970 449.468636 160.183639 449.471489 161.185309 449.474314 162.186978 449.477107 163.188648 449.479874 164.190317 449.482609 165.191987 449.485317 166.193656 449.487998 167.195326 449.490650 168.196995 449.493276 169.198664 449.495876 170.200334 449.498449 171.202003 449.500997 172.203673 449.503517 173.205342 449.506014 174.207012 449.508487 175.208681 449.510935 176.210351 449.513359 177.212020 449.515759 178.213689 449.518135 179.215359 449.520489 180.217028 449.522822 181.218698 449.525132 182.220367 449.527418 183.222037 449.529684 184.223706 449.531928 185.225376 449.534151 186.227045 449.536354 187.228715 449.538536 188.230384 449.540697 189.232053 449.542841 190.233723 449.544962 191.235392 449.547066 192.237062 449.549148 193.238731 449.551215 194.240401 449.553260 195.242070 449.555289 196.243740 449.557299 197.245409 449.559291 198.247078 449.561265 199.248748 449.563222 200.250417 449.565162 201.252087 449.567086 202.253756 449.568990 203.255426 449.570881 204.257095 449.572755 205.258765 449.574611 206.260434 449.576454 207.262104 449.578279 208.263773 449.580089 209.265442 449.581884 210.267112 449.583663 211.268781 449.585429 212.270451 449.587180 213.272120 449.588915 214.273790 449.590635 215.275459 449.592344 216.277129 449.594036 217.278798 449.595716 218.280467 449.597381 219.282137 449.599033 220.283806 449.600672 221.285476 449.602298 222.287145 449.603910 223.288815 449.605510 224.290484 449.607096 225.292154 449.608671 226.293823 449.610233 227.295492 449.611782 228.297162 449.613320 229.298831 449.614847 230.300501 449.616361 231.302170 449.617861 232.303840 449.619353 233.305509 449.620832 234.307179 449.622300 235.308848 449.623756 236.310518 449.625200 237.312187 449.626635 238.313856 449.628059 239.315526 449.629472 240.317195 449.630873 241.318865 449.632267 242.320534 449.633649 243.322204 449.635020 244.323873 449.636380 245.325543 449.637732 246.327212 449.639072 247.328881 449.640404 248.330551 449.641727 249.332220 449.643039 250.333890 449.644342 251.335559 449.645636 252.337229 449.646920 253.338898 449.648194 254.340568 449.649460 255.342237 449.650717 256.343907 449.651966 257.345576 449.653205 258.347245 449.654436 259.348915 449.655658 260.350584 449.656871 261.352254 449.658076 262.353923 449.659274 263.355593 449.660460 264.357262 449.661641 265.358932 449.662815 266.360601 449.663977 267.362270 449.665133 268.363940 449.666283 269.365609 449.667424 270.367279 449.668556 271.368948 449.669681 272.370618 449.670798 273.372287 449.671910 274.373957 449.673012 275.375626 449.674109 276.377295 449.675197 277.378965 449.676279 278.380634 449.677351 279.382304 449.678420 280.383973 449.679479 281.385643 449.680532 282.387312 449.681579 283.388982 449.682619 284.390651 449.683652 285.392321 449.684679 286.393990 449.685697 287.395659 449.686711 288.397329 449.687718 289.398998 449.688718 290.400668 449.689712 291.402337 449.690701 292.404007 449.691682 293.405676 449.692658 294.407346 449.693628 295.409015 449.694591 296.410684 449.695548 297.412354 449.696500 298.414023 449.697445 299.415693 449.698384 300.417362 449.699319 301.419032 449.700247 302.420701 449.701171 303.422371 449.702088 304.424040 449.702998 305.425710 449.703904 306.427379 449.704806 307.429048 449.705701 308.430718 449.706589 309.432387 449.707474 310.434057 449.708353 311.435726 449.709227 312.437396 449.710095 313.439065 449.710960 314.440735 449.711820 315.442404 449.712673 316.444073 449.713520 317.445743 449.714365 318.447412 449.715203 319.449082 449.716036 320.450751 449.716866 321.452421 449.717691 322.454090 449.718511 323.455760 449.719325 324.457429 449.720135 325.459098 449.720940 326.460768 449.721743 327.462437 449.722539 328.464107 449.723331 329.465776 449.724119 330.467446 449.724900 331.469115 449.725679 332.470785 449.726453 333.472454 449.727223 334.474124 449.727989 335.475793 449.728750 336.477462 449.729509 337.479132 449.730262 338.480801 449.731010 339.482471 449.731756 340.484140 449.732495 341.485810 449.733232 342.487479 449.733965 343.489149 449.734693 344.490818 449.735420 345.492487 449.736139 346.494157 449.736857 347.495826 449.737570 348.497496 449.738280 349.499165 449.738985 350.500835 449.739687 351.502504 449.740384 352.504174 449.741080 353.505843 449.741771 354.507513 449.742458 355.509182 449.743140 356.510851 449.743820 357.512521 449.744498 358.514190 449.745169 359.515860 449.745838 360.517529 449.746505 361.519199 449.747168 362.520868 449.747826 363.522538 449.748482 364.524207 449.749134 365.525876 449.749783 366.527546 449.750428 367.529215 449.751071 368.530885 449.751709 369.532554 449.752346 370.534224 449.752977 371.535893 449.753607 372.537563 449.754232 373.539232 449.754855 374.540902 449.755476 375.542571 449.756093 376.544240 449.756707 377.545910 449.757317 378.547579 449.757925 379.549249 449.758530 380.550918 449.759131 381.552588 449.759730 382.554257 449.760325 383.555927 449.760919 384.557596 449.761509 385.559265 449.762095 386.560935 449.762679 387.562604 449.763260 388.564274 449.763839 389.565943 449.764414 390.567613 449.764989 391.569282 449.765559 392.570952 449.766125 393.572621 449.766691 394.574290 449.767253 395.575960 449.767813 396.577629 449.768370 397.579299 449.768923 398.580968 449.769473 399.582638 449.770024 400.584307 449.770570 401.585977 449.771114 402.587646 449.771654 403.589316 449.772194 404.590985 449.772729 405.592654 449.773262 406.594324 449.773793 407.595993 449.774322 408.597663 449.774848 409.599332 449.775373 410.601002 449.775895 411.602671 449.776413 412.604341 449.776930 413.606010 449.777444 414.607679 449.777957 415.609349 449.778466 416.611018 449.778973 417.612688 449.779478 418.614357 449.779980 419.616027 449.780480 420.617696 449.780979 421.619366 449.781475 422.621035 449.781969 423.622705 449.782461 424.624374 449.782950 425.626043 449.783437 426.627713 449.783922 427.629382 449.784405 428.631052 449.784886 429.632721 449.785364 430.634391 449.785841 431.636060 449.786315 432.637730 449.786787 433.639399 449.787258 434.641068 449.787726 435.642738 449.788192 436.644407 449.788656 437.646077 449.789118 438.647746 449.789579 439.649416 449.790037 440.651085 449.790493 441.652755 449.790947 442.654424 449.791399 443.656093 449.791850 444.657763 449.792298 445.659432 449.792745 446.661102 449.793189 447.662771 449.793632 448.664441 449.794073 449.666110 449.794512 450.667780 449.794949 451.669449 449.795384 452.671119 449.795818 453.672788 449.796249 454.674457 449.796679 455.676127 449.797107 456.677796 449.797533 457.679466 449.797958 458.681135 449.798380 459.682805 449.798801 460.684474 449.799220 461.686144 449.799638 462.687813 449.800054 463.689482 449.800468 464.691152 449.800880 465.692821 449.801291 466.694491 449.801700 467.696160 449.802107 468.697830 449.802513 469.699499 449.802917 470.701169 449.803319 471.702838 449.803720 472.704508 449.804119 473.706177 449.804517 474.707846 449.804913 475.709516 449.805307 476.711185 449.805700 477.712855 449.806091 478.714524 449.806481 479.716194 449.806869 480.717863 449.807256 481.719533 449.807641 482.721202 449.808024 483.722871 449.808406 484.724541 449.808787 485.726210 449.809166 486.727880 449.809543 487.729549 449.809919 488.731219 449.810294 489.732888 449.810667 490.734558 449.811039 491.736227 449.811409 492.737896 449.811778 493.739566 449.812145 494.741235 449.812511 495.742905 449.812875 496.744574 449.813238 497.746244 449.813600 498.747913 449.813961 499.749583 449.814320 500.751252 449.814677 501.752922 449.815033 502.754591 449.815388 503.756260 449.815742 504.757930 449.816094 505.759599 449.816445 506.761269 449.816794 507.762938 449.817142 508.764608 449.817489 509.766277 449.817835 510.767947 449.818179 511.769616 449.818522 512.771285 449.818864 513.772955 449.819204 514.774624 449.819544 515.776294 449.819882 516.777963 449.820218 517.779633 449.820554 518.781302 449.820888 519.782972 449.821221 520.784641 449.821552 521.786311 449.821883 522.787980 449.822212 523.789649 449.822540 524.791319 449.822867 525.792988 449.823193 526.794658 449.823517 527.796327 449.823841 528.797997 449.824163 529.799666 449.824484 530.801336 449.824804 531.803005 449.825122 532.804674 449.825440 533.806344 449.825756 534.808013 449.826071 535.809683 449.826386 536.811352 449.826699 537.813022 449.827010 538.814691 449.827321 539.816361 449.827631 540.818030 449.827940 541.819699 449.828247 542.821369 449.828553 543.823038 449.828859 544.824708 449.829163 545.826377 449.829466 546.828047 449.829768 547.829716 449.830069 548.831386 449.830369 549.833055 449.830668 550.834725 449.830966 551.836394 449.831263 552.838063 449.831559 553.839733 449.831853 554.841402 449.832147 555.843072 449.832440 556.844741 449.832732 557.846411 449.833022 558.848080 449.833312 559.849750 449.833601 560.851419 449.833888 561.853088 449.834175 562.854758 449.834461 563.856427 449.834746 564.858097 449.835030 565.859766 449.835312 566.861436 449.835594 567.863105 449.835875 568.864775 449.836155 569.866444 449.836434 570.868114 449.836712 571.869783 449.836990 572.871452 449.837266 573.873122 449.837541 574.874791 449.837815 575.876461 449.838089 576.878130 449.838361 577.879800 449.838633 578.881469 449.838904 579.883139 449.839174 580.884808 449.839443 581.886477 449.839711 582.888147 449.839978 583.889816 449.840244 584.891486 449.840510 585.893155 449.840774 586.894825 449.841038 587.896494 449.841300 588.898164 449.841562 589.899833 449.841823 590.901503 449.842084 591.903172 449.842343 592.904841 449.842602 593.906511 449.842859 594.908180 449.843116 595.909850 449.843372 596.911519 449.843627 597.913189 449.843882 598.914858 449.844135 599.916528 449.844388 600.918197 449.844640 601.919866 449.844891 602.921536 449.845141 603.923205 449.845391 604.924875 449.845640 605.926544 449.845887 606.928214 449.846135 607.929883 449.846381 608.931553 449.846627 609.933222 449.846871 610.934891 449.847115 611.936561 449.847358 612.938230 449.847601 613.939900 449.847843 614.941569 449.848084 615.943239 449.848324 616.944908 449.848563 617.946578 449.848802 618.948247 449.849040 619.949917 449.849277 620.951586 449.849514 621.953255 449.849749 622.954925 449.849984 623.956594 449.850219 624.958264 449.850452 625.959933 449.850685 626.961603 449.850917 627.963272 449.851148 628.964942 449.851379 629.966611 449.851609 630.968280 449.851838 631.969950 449.852067 632.971619 449.852295 633.973289 449.852522 634.974958 449.852748 635.976628 449.852974 636.978297 449.853199 637.979967 449.853424 638.981636 449.853648 639.983306 449.853871 640.984975 449.854093 641.986644 449.854315 642.988314 449.854536 643.989983 449.854756 644.991653 449.854976 645.993322 449.855195 646.994992 449.855413 647.996661 449.855631 648.998331 449.855848 650.000000 449.856065 " stroke="rgb(0,0,0)" fill="none" stroke-width="2"/>
 <polyline points="50.000000 230.609831 51.001669 230.609831 52.003339 230.609831 53.005008 230.609831 54.006678 230.609831 55.008347 230.609831 56.010017 230.609831 57.011686 230.609831 58.013356 230.609831 59.015025 230.609831 60.016694 230.609831 61.018364 230.609831 62.020033 230.609831 63.021703 230.609831 64.023372 230.609831 65.025042 230.609831 66.026711 230.609831 67.028381 230.609831 68.030050 230.609831 69.031720 230.609831 70.033389 230.609831 71.035058 230.609831 72.036728 230.609831 73.038397 230.609831 74.040067 230.609831 75.041736 230.609831 76.043406 230.609831 77.045075 230.609831 78.046745 230.609831 79.048414 230.609831 80.050083 230.609831 81.051753 230.609831 82.053422 230.609831 83.055092 230.609831 84.056761 230.609831 85.058431 230.609831 86.060100 230.609831 87.061770 230.609831 88.063439 230.609831 89.065109 230.609831 90.066778 230.609831 91.068447 230.609831 92.070117 230.609831 93.071786 230.609831 94.073456 230.609831 95.075125 230.609831 96.076795 230.609831 97.078464 230.609831 98.080134 230.609831 99.081803 230.609831 100.083472 230.609831 101.085142 230.609831 102.086811 230.609831 103.088481 230.609831 104.090150 230.609831 105.091820 230.609831 106.093489 230.609831 107.095159 230.609831 108.096828 230.609831 109.098497 230.609831 110.100167 230.609831 111.101836 230.609831 112.103506 230.609831 113.105175 230.609831 114.106845 230.609831 115.108514 230.609831 116.110184 230.609831 117.111853 230.609831 118.113523 230.609831 119.115192 230.609831 120.116861 230.609831 121.118531 230.609831 122.120200 230.609831 123.121870 230.609831 124.123539 230.609831 125.125209 230.609831 126.126878 230.609831 127.128548 230.609831 128.130217 230.609831 129.131886 230.609831 130.133556 230.609831 131.135225 230.609831 132.136895 230.609831 133.138564 230.609831 134.140234 230.609831 135.141903 230.609831 136.143573 230.609831 137.145242 230.609831 138.146912 230.609831 139.148581 230.609831 140.150250 230.609831 141.151920 230.609831 142.153589 230.609831 143.155259 230.609831 144.156928 230.609831 145.158598 230.609831 146.160267 230.609831 147.161937 230.609831 148.163606 230.609831 149.165275 230.609831 150.166945 230.609831 151.168614 230.609831 152.170284 230.609831 153.171953 230.609831 154.173623 230.609831 155.175292 230.609831 156.176962 230.609831 157.178631 230.609831 158.180301 230.609831 159.181970 230.609831 160.183639 230.609831 161.185309 230.609831 162.186978 230.609831 163.188648 230.609831 164.190317 230.609831 165.191987 230.609831 166.193656 230.609831 167.195326 230.609831 168.196995 230.609831 169.198664 230.609831 170.200334 230.609831 171.202003 230.609831 172.203673 230.609831 173.205342 230.609831 174.207012 230.609831 175.208681 230.609831 176.210351 230.609831 177.212020 230.609831 178.213689 230.609831 179.215359 230.609831 180.217028 230.609831 181.218698 230.609831 182.220367 230.609831 183.222037 230.609831 184.223706 230.609831 185.225376 230.609831 186.227045 230.609831 187.228715 230.609831 188.230384 230.609831 189.232053 230.609831 190.233723 230.609831 191.235392 230.609831 192.237062 230.609831 193.238731 230.609831 194.240401 230.609831 195.242070 230.609831 196.243740 230.609831 197.245409 230.609831 198.247078 230.609831 199.248748 230.609831 200.250417 230.609831 201.252087 230.609831 202.253756 230.609831 203.255426 230.609831 204.257095 230.609831 205.258765 230.609831 206.260434 230.609831 207.262104 230.609831 208.263773 230.609831 209.265442 230.609831 210.267112 230.609831 211.268781 230.609831 212.270451 230.609831 213.272120 230.609831 214.273790 230.609831 215.275459 230.609831 216.277129 230.609831 217.278798 230.609831 218.280467 230.609831 219.282137 230.609831 220.283806 230.609831 221.285476 230.609831 222.287145 230.609831 223.288815 230.609831 224.290484 230.609831 225.292154 230.609831 226.293823 230.609831 227.295492 230.609831 228.297162 230.609831 229.298831 230.609831 230.300501 230.609831 231.302170 230.609831 232.303840 230.609831 233.305509 230.609831 234.307179 230.609831 235.308848 230.609831 236.310518 230.609831 237.312187 230.609831 238.313856 230.609831 239.315526 230.609831 240.317195 230.609831 241.318865 230.609831 242.320534 230.609831 243.322204 230.609831 244.323873 230.609831 245.325543 230.609831 246.327212 230.609831 247.328881 230.609831 248.330551 230.609831 249.332220 230.609831 250.333890 230.609831 251.335559 230.609831 252.337229 230.609831 253.338898 230.609831 254.340568 230.609831 255.342237 230.609831 256.343907 230.609831 257.345576 230.609831 258.347245 230.609831 259.348915 230.609831 260.350584 230.609831 261.352254 230.609831 262.353923 230.609831 263.355593 230.609831 264.357262 230.609831 265.358932 230.609831 266.360601 230.609831 267.362270 230.609831 268.363940 230.609831 269.365609 230.609831 270.367279 230.609831 271.368948 230.609831 272.370618 230.609831 273.372287 230.609831 274.373957 230.609831 275.375626 230.609831 276.377295 230.609831 277.378965 230.609831 278.380634 230.609831 279.382304 230.609831 280.383973 230.609831 281.385643 230.609831 282.387312 230.609831 283.388982 230.609831 284.390651 230.609831 285.392321 230.609831 286.393990 230.609831 287.395659 230.609831 288.397329 230.609831 289.398998 230.609831 290.400668 230.609831 291.402337 230.609831 292.404007 230.609831 293.405676 230.609831 294.407346 230.609831 295.409015 230.609831 296.410684 230.609831 297.412354 230.609831 298.414023 230.609831 299.415693 230.609831 300.417362 230.609831 301.419032 230.609831 302.420701 230.609831 303.422371 230.609831 304.424040 230.609831 305.425710 230.609831 306.427379 230.609831 307.429048 230.609831 308.430718 230.609831 309.432387 230.609831 310.434057 230.609831 311.435726 230.609831 312.437396 230.609831 313.439065 230.609831 314.440735 230.609831 315.442404 230.609831 316.444073 230.609831 317.445743 230.609831 318.447412 230.609831 319.449082 230.609831 320.450751 230.609831 321.452421 230.609831 322.454090 230.609831 323.455760 230.609831 324.457429 230.609831 325.459098 230.609831 326.460768 230.609831 327.462437 230.609831 328.464107 230.609831 329.465776 230.609831 330.467446 230.609831 331.469115 230.609831 332.470785 230.609831 333.472454 230.609831 334.474124 230.609831 335.475793 230.609831 336.477462 230.609831 337.479132 230.609831 338.480801 230.609831 339.482471 230.609831 340.484140 230.609831 341.485810 230.609831 342.487479 230.609831 343.489149 230.609831 344.490818 230.609831 345.492487 230.609831 346.494157 230.609831 347.495826 230.609831 348.497496 230.609831 349.499165 230.609831 350.500835 230.609831 351.502504 230.609831 352.504174 230.609831 353.505843 230.609831 354.507513 230.609831 355.509182 230.609831 356.510851 230.609831 357.512521 230.609831 358.514190 230.609831 359.515860 230.609831 360.517529 230.609831 361.519199 230.609831 362.520868 230.609831 363.522538 230.609831 364.524207 230.609831 365.525876 230.609831 366.527546 230.609831 367.529215 230.609831 368.530885 230.609831 369.532554 230.609831 370.534224 230.609831 371.535893 230.609831 372.537563 230.609831 373.539232 230.609831 374.540902 230.609831 375.542571 230.609831 376.544240 230.609831 377.545910 230.609831 378.547579 230.609831 379.549249 230.609831 380.550918 230.609831 381.552588 230.609831 382.554257 230.609831 383.555927 230.609831 384.557596 230.609831 385.559265 230.609831 386.560935 230.609831 387.562604 230.609831 388.564274 230.609831 389.565943 230.609831 390.567613 230.609831 391.569282 230.609831 392.570952 230.609831 393.572621 230.609831 394.574290 230.609831 395.575960 230.609831 396.577629 230.609831 397.579299 230.609831 398.580968 230.609831 399.582638 230.609831 400.584307 230.609831 401.585977 230.609831 402.587646 230.609831 403.589316 230.609831 404.590985 230.609831 405.592654 230.609831 406.594324 230.609831 407.595993 230.609831 408.597663 230.609831 409.599332 230.609831 410.601002 230.609831 411.602671 230.609831 412.604341 230.609831 413.606010 230.609831 414.607679 230.609831 415.609349 230.609831 416.611018 230.609831 417.612688 230.609831 418.614357 230.609831 419.616027 230.609831 420.617696 230.609831 421.619366 230.609831 422.621035 230.609831 423.622705 230.609831 424.624374 230.609831 425.626043 230.609831 426.627713 230.609831 427.629382 230.609831 428.631052 230.609831 429.632721 230.609831 430.634391 230.609831 431.636060 230.609831 432.637730 230.609831 433.639399 230.609831 434.641068 230.609831 435.642738 230.609831 436.644407 230.609831 437.646077 230.609831 438.647746 230.609831 439.649416 230.609831 440.651085 230.609831 441.652755 230.609831 442.654424 230.609831 443.656093 230.609831 444.657763 230.609831 445.659432 230.609831 446.661102 230.609831 447.662771 230.609831 448.664441 230.609831 449.666110 230.609831 450.667780 230.609831 451.669449 230.609831 452.671119 230.609831 453.672788 230.609831 454.674457 230.609831 455.676127 230.609831 456.677796 230.609831 457.679466 230.609831 458.681135 230.609831 459.682805 230.609831 460.684474 230.609831 461.686144 230.609831 462.687813 230.609831 463.689482 230.609831 464.691152 230.609831 465.692821 230.609831 466.694491 230.609831 467.696160 230.609831 468.697830 230.609831 469.699499 230.609831 470.701169 230.609831 471.702838 230.609831 472.704508 230.609831 473.706177 230.609831 474.707846 230.609831 475.709516 230.609831 476.711185 230.609831 477.712855 230.609831 478.714524 230.609831 479.716194 230.609831 480.717863 230.609831 481.719533 230.609831 482.721202 230.609831 483.722871 230.609831 484.724541 230.609831 485.726210 230.609831 486.727880 230.609831 487.729549 230.609831 488.731219 230.609831 489.732888 230.609831 490.734558 230.609831 491.736227 230.609831 492.737896 230.609831 493.739566 230.609831 494.741235 230.609831 495.742905 230.609831 496.744574 230.609831 497.746244 230.609831 498.747913 230.609831 499.749583 230.609831 500.751252 230.609831 501.752922 230.609831 502.754591 230.609831 503.756260 230.609831 504.757930 230.609831 505.759599 230.609831 506.761269 230.609831 507.762938 230.609831 508.764608 230.609831 509.766277 230.609831 510.767947 230.609831 511.769616 230.609831 512.771285 230.609831 513.772955 230.609831 514.774624 230.609831 515.776294 230.609831 516.777963 230.609831 517.779633 230.609831 518.781302 230.609831 519.782972 230.609831 520.784641 230.609831 521.786311 230.609831 522.787980 230.609831 523.789649 230.609831 524.791319 230.609831 525.792988 230.609831 526.794658 230.609831 527.796327 230.609831 528.797997 230.609831 529.799666 230.609831 530.801336 230.609831 531.803005 230.609831 532.804674 230.609831 533.806344 230.609831 534.808013 230.609831 535.809683 230.609831 536.811352 230.609831 537.813022 230.609831 538.814691 230.609831 539.816361 230.609831 540.818030 230.609831 541.819699 230.609831 542.821369 230.609831 543.823038 230.609831 544.824708 230.609831 545.826377 230.609831 546.828047 230.609831 547.829716 230.609831 548.831386 230.609831 549.833055 230.609831 550.834725 230.609831 551.836394 230.609831 552.838063 230.609831 553.839733 230.609831 554.841402 230.609831 555.843072 230.609831 556.844741 230.609831 557.846411 230.609831 558.848080 230.609831 559.849750 230.609831 560.851419 230.609831 561.853088 230.609831 562.854758 230.609831 563.856427 230.609831 564.858097 230.609831 565.859766 230.609831 566.861436 230.609831 567.863105 230.609831 568.864775 230.609831 569.866444 230.609831 570.868114 230.609831 571.869783 230.609831 572.871452 230.609831 573.873122 230.609831 574.874791 230.609831 575.876461 230.609831 576.878130 230.609831 577.879800 230.609831 578.881469 230.609831 579.883139 230.609831 580.884808 230.609831 581.886477 230.609831 582.888147 230.609831 583.889816 230.609831 584.891486 230.609831 585.893155 230.609831 586.894825 230.609831 587.896494 230.609831 588.898164 230.609831 589.899833 230.609831 590.901503 230.609831 591.903172 230.609831 592.904841 230.609831 593.906511 230.609831 594.908180 230.609831 595.909850 230.609831 596.911519 230.609831 597.913189 230.609831 598.914858 230.609831 599.916528 230.609831 600.918197 230.609831 601.919866 230.609831 602.921536 230.609831 603.923205 230.609831 604.924875 230.609831 605.926544 230.609831 606.928214 230.609831 607.929883 230.609831 608.931553 230.609831 609.933222 230.609831 610.934891 230.609831 611.936561 230.609831 612.938230 230.609831 613.939900 230.609831 614.941569 230.609831 615.943239 230.609831 616.944908 230.609831 617.946578 230.609831 618.948247 230.609831 619.949917 230.609831 620.951586 230.609831 621.953255 230.609831 622.954925 230.609831 623.956594 230.609831 624.958264 230.609831 625.959933 230.609831 626.961603 230.609831 627.963272 230.609831 628.964942 230.609831 629.966611 230.609831 630.968280 230.609831 631.969950 230.609831 632.971619 230.609831 633.973289 230.609831 634.974958 230.609831 635.976628 230.609831 636.978297 230.609831 637.979967 230.609831 638.981636 230.609831 639.983306 230.609831 640.984975 230.609831 641.986644 230.609831 642.988314 230.609831 643.989983 230.609831 644.991653 230.609831 645.993322 230.609831 646.994992 230.609831 647.996661 230.609831 648.998331 230.609831 650.000000 230.609831 " stroke="rgb(100,100,255)" fill="none" stroke-width="2"/>
<text x="600" y="50" fill="rgb(255,0,0)">0-1.txt</text>
<text x="600" y="70" fill="rgb(0,255,0)">1-0.txt</text>
<text x="600" y="90" fill="rgb(0,0,255)">5-0.txt</text>
<text x="600" y="110" fill="rgb(0,0,0)">10-0.txt</text>
<text x="600" y="130" fill="rgb(100,100,255)">30-0.txt</text>
<line x1="50" x2="650" y1="450" y2="450" stroke="rgb(100,100,100)" stroke-width="2"/>
<line x1="50" x2="50" y1="450" y2="50" stroke="rgb(100,100,100)" stroke-width="2"/>
<text x="5" y="500" fill="rgb(0,0,0)">0.00</text>
<text x="645.000000" y="500.000000" fill="black">599.00</text>
<text x="250" y="500.000000" fill="black"> step</text>
<text x="5" y="50.000000" fill="black">1.82</text>
<text x="5" y="450.000000" fill="black">0.00</text>
<text x="5" y="250" fill="black">err</text>
</svg>
