<?xml version="1.0" standalone="no"?>
<svg width="700.000000" height="500.000000" version="1.1" xmlns="http://www.w3.org/2000/svg"    xmlns:xlink="http://www.w3.org/1999/xlink">
<rect x="0" y="0" width="700.000000" height="500.000000" stroke="black" fill="none" stroke-width="1"/>
 <polyline points="50.000000 38.223177 53.973510 33.620743 57.947020 17.255582 61.920530 72.723744 65.894040 93.904030 69.867550 71.758294 73.841060 48.521310 77.814570 127.190081 81.788079 140.529559 85.761589 115.128775 89.735099 84.330363 93.708609 165.529714 97.682119 182.955809 101.655629 163.899412 105.629139 125.971522 109.602649 185.524280 113.576159 207.418424 117.549669 209.169470 121.523179 169.443550 125.496689 196.172522 129.470199 217.123445 133.443709 244.065109 137.417219 209.790875 141.390728 210.220300 145.364238 226.192411 149.337748 269.174894 153.311258 243.943860 157.284768 230.433621 161.258278 241.024270 165.231788 288.404577 169.205298 271.481163 173.178808 253.245726 177.152318 259.816950 181.125828 304.389318 185.099338 293.512723 189.072848 275.214640 193.046358 279.215877 197.019868 318.162264 200.993377 311.299030 204.966887 294.756036 208.940397 297.209825 212.913907 330.103835 216.887417 325.800484 220.860927 311.496061 224.834437 313.030374 228.807947 340.431271 232.781457 337.728920 236.754967 325.598402 240.728477 326.582039 244.701987 349.340086 248.675497 347.634003 252.649007 337.419734 256.622517 338.067409 260.596026 357.026301 264.569536 355.945664 268.543046 347.350077 272.516556 347.788596 276.490066 363.677348 280.463576 362.995319 284.437086 355.742571 288.410596 356.046706 292.384106 369.462470 296.357616 369.039612 300.331126 362.892257 304.304636 363.108485 308.278146 374.525147 312.251656 374.274564 316.225166 369.037086 320.198675 369.193700 324.172185 378.985617 328.145695 378.851737 332.119205 374.364996 336.092715 374.480689 340.066225 382.941386 344.039735 382.888339 348.013245 379.023002 351.986755 379.109898 355.960265 386.472275 359.933775 386.475307 363.907285 383.127807 367.880795 383.193989 371.854305 389.642448 375.827815 389.685390 379.801325 386.771358 383.774834 386.822889 387.748344 392.504949 391.721854 392.575678 395.695364 390.027415 399.668874 390.067326 403.642384 395.102217 407.615894 395.193154 411.589404 392.954078 415.562914 392.986411 419.536424 397.470626 423.509934 397.575203 427.483444 395.600350 431.456954 395.625611 435.430464 399.639074 439.403974 399.753453 443.377483 398.004124 447.350993 398.024837 451.324503 401.632367 455.298013 401.753213 459.271523 400.198186 463.245033 400.215161 467.218543 403.471269 471.192053 403.596156 475.165563 402.209162 479.139073 402.223206 483.112583 405.173311 487.086093 405.300522 491.059603 404.059481 495.033113 404.071101 499.006623 406.753496 502.980132 406.881718 506.953642 405.767939 510.927152 405.777639 514.900662 408.224709 518.874172 408.352829 522.847682 407.350549 526.821192 407.358734 530.794702 409.597962 534.768212 409.725324 538.741722 408.821004 542.715232 408.827925 546.688742 410.882955 550.662252 411.008953 554.635762 410.191024 558.609272 410.196935 562.582781 412.088024 566.556291 412.212255 570.529801 411.470813 574.503311 411.475865 578.476821 413.220546 582.450331 413.342705 586.423841 412.669113 590.397351 412.673458 594.370861 414.286937 598.344371 414.406772 602.317881 413.793653 606.291391 413.797391 610.264901 415.292904 614.238411 415.410314 618.211921 414.851152 622.185430 414.854385 626.158940 416.243552 630.132450 416.358385 634.105960 415.847520 638.079470 415.850400 642.052980 417.143376 646.026490 417.255582 650.000000 416.788064 " stroke="rgb(255,0,0)" fill="none" stroke-width="2"/>
<text x="600" y="50" fill="rgb(255,0,0)">ex1.txt</text>
<line x1="50" x2="650" y1="450" y2="450" stroke="rgb(100,100,100)" stroke-width="2"/>
<line x1="50" x2="50" y1="450" y2="50" stroke="rgb(100,100,100)" stroke-width="2"/>
<text x="5" y="500" fill="rgb(0,0,0)">0.00</text>
<text x="645.000000" y="500.000000" fill="black">151.00</text>
<text x="250" y="500.000000" fill="black"> step</text>
<text x="5" y="50.000000" fill="black">0.86</text>
<text x="5" y="450.000000" fill="black">0.06</text>
<text x="5" y="250" fill="black">err</text>
</svg>
