<?xml version="1.0" standalone="no"?>
<svg width="700.000000" height="500.000000" version="1.1" xmlns="http://www.w3.org/2000/svg"    xmlns:xlink="http://www.w3.org/1999/xlink">
<rect x="0" y="0" width="700.000000" height="500.000000" stroke="black" fill="none" stroke-width="1"/>
 <polyline points="50.000000 -1092.645079 53.973510 -1082.632345 57.947020 -1340.533018 61.920530 -1017.942514 65.894040 -1050.047299 69.867550 -1122.173913 73.841060 -1378.124432 77.814570 -1047.995270 81.788079 -1028.391850 85.761589 -1154.758959 89.735099 -1402.297617 93.708609 -1083.330908 97.682119 -1023.923959 101.655629 -1178.466436 105.629139 -1414.493360 109.602649 -1116.032381 113.576159 -1030.181917 117.549669 -1195.392032 121.523179 -1417.942514 125.496689 -1144.120429 129.470199 -1042.377661 133.443709 -1208.082591 137.417219 -1415.512098 141.390728 -1168.162634 145.364238 -1058.066218 149.337748 -1218.124432 153.311258 -1409.094051 157.284768 -1188.886665 161.258278 -1076.025105 165.231788 -1226.230671 169.205298 -1399.823540 173.178808 -1206.598144 177.152318 -1095.250136 181.125828 -1232.634164 185.099338 -1388.399127 189.072848 -1221.238858 193.046358 -1114.737129 197.019868 -1237.364017 200.993377 -1375.315627 204.966887 -1232.706931 208.940397 -1133.511006 212.913907 -1240.362016 216.887417 -1361.024195 220.860927 -1240.973258 224.834437 -1150.669456 228.807947 -1241.657268 232.781457 -1345.917773 236.754967 -1246.110606 240.728477 -1165.499363 244.701987 -1241.278879 248.675497 -1330.360196 252.649007 -1248.337275 256.622517 -1177.564126 260.596026 -1239.372385 264.569536 -1314.686192 268.543046 -1247.973440 272.516556 -1186.659996 276.490066 -1236.097872 280.463576 -1299.157722 284.437086 -1245.426596 288.410596 -1192.830635 292.384106 -1231.659087 296.357616 -1284.007641 300.331126 -1241.089685 304.304636 -1196.308896 308.278146 -1226.259778 312.251656 -1269.410588 316.225166 -1235.370202 320.198675 -1197.414954 324.172185 -1220.118246 328.145695 -1255.468437 332.119205 -1228.661088 336.092715 -1196.556303 340.066225 -1213.467346 344.039735 -1242.253957 348.013245 -1221.267964 351.986755 -1194.096780 355.960265 -1206.452611 359.933775 -1229.810806 363.907285 -1213.452792 367.880795 -1190.429325 371.854305 -1199.234128 375.827815 -1218.124432 379.801325 -1205.448426 383.774834 -1185.874113 387.748344 -1191.971985 391.721854 -1207.194834 395.695364 -1197.414954 399.668874 -1180.693105 403.642384 -1184.738949 407.615894 -1196.992905 411.589404 -1189.468801 415.562914 -1175.119156 419.536424 -1177.636893 423.509934 -1187.460433 427.483444 -1181.726396 431.456954 -1169.326906 435.430464 -1170.709478 439.403974 -1178.597417 443.377483 -1174.231399 447.350993 -1163.461888 451.324503 -1164.014917 455.298013 -1170.316536 459.271523 -1167.027470 463.245033 -1157.625978 467.218543 -1157.567764 471.192053 -1162.617792 475.165563 -1160.143715 479.139073 -1151.891941 483.112583 -1151.411679 487.086093 -1155.428415 491.059603 -1153.594688 495.033113 -1146.303438 499.006623 -1145.517555 502.980132 -1148.719301 506.953642 -1147.380389 510.927152 -1140.904130 514.900662 -1139.914499 518.874172 -1142.446789 522.847682 -1141.500819 526.821192 -1135.708568 530.794702 -1134.602510 534.768212 -1136.596325 538.741722 -1135.941423 542.715232 -1130.745861 546.688742 -1129.567037 550.662252 -1131.124250 554.635762 -1130.702201 558.609272 -1126.016009 562.582781 -1124.793524 566.556291 -1126.001455 570.529801 -1125.754048 574.503311 -1121.504457 578.476821 -1120.267419 582.450331 -1121.213389 586.423841 -1121.082409 590.397351 -1117.225760 594.370861 -1116.003275 598.344371 -1116.701837 602.317881 -1116.672731 606.291391 -1113.150810 610.264901 -1111.957431 614.238411 -1112.481353 618.211921 -1112.525014 622.185430 -1109.294160 626.158940 -1108.129889 630.132450 -1108.508277 634.105960 -1108.610151 638.079470 -1105.641259 642.052980 -1104.520648 646.026490 -1104.768055 650.000000 -1104.913589 " stroke="rgb(255,0,0)" fill="none" stroke-width="2"/>
<text x="600" y="50" fill="rgb(255,0,0)">ex2.txt</text>
<line x1="50" x2="650" y1="450" y2="450" stroke="rgb(100,100,100)" stroke-width="2"/>
<line x1="50" x2="50" y1="450" y2="50" stroke="rgb(100,100,100)" stroke-width="2"/>
<text x="5" y="500" fill="rgb(0,0,0)">0.00</text>
<text x="645.000000" y="500.000000" fill="black">151.00</text>
<text x="250" y="500.000000" fill="black"> step</text>
<text x="5" y="50.000000" fill="black">1.28</text>
<text x="5" y="450.000000" fill="black">1.01</text>
<text x="5" y="250" fill="black">err</text>
</svg>
