<?xml version="1.0" standalone="no"?>
<svg width="700.000000" height="500.000000" version="1.1" xmlns="http://www.w3.org/2000/svg"    xmlns:xlink="http://www.w3.org/1999/xlink">
<rect x="0" y="0" width="700.000000" height="500.000000" stroke="black" fill="none" stroke-width="1"/>
 <polyline points="50.000000 -753.992439 50.400000 -754.893025 50.800000 -755.316831 51.200000 -755.442046 51.600000 -755.581709 52.000000 -755.750268 52.400000 -755.899563 52.800000 -755.986250 53.200000 -755.995882 53.600000 -755.928459 54.000000 -755.779164 54.400000 -755.552813 54.800000 -755.254223 55.200000 -754.893025 55.600000 -754.474036 56.000000 -754.002071 56.400000 -753.472314 56.800000 -752.889582 57.200000 -752.258690 57.600000 -751.570006 58.000000 -750.833163 58.400000 -750.038528 58.800000 -749.186101 59.200000 -748.271067 59.600000 -747.288609 60.000000 -746.233912 60.400000 -745.106975 60.800000 -743.888534 61.200000 -742.583407 61.600000 -741.177143 62.000000 -739.664929 62.400000 -738.032315 62.800000 -736.274486 63.200000 -734.372178 63.600000 -732.315759 64.000000 -730.095597 64.400000 -727.682796 64.800000 -725.067725 65.200000 -722.226302 65.600000 -719.139266 66.000000 -715.777719 66.400000 -712.107950 66.800000 -708.105879 67.200000 -703.728163 67.600000 -698.941089 68.000000 -693.696498 68.400000 -687.955862 68.800000 -681.671021 69.200000 -674.789000 69.600000 -667.266456 70.000000 -659.064859 70.400000 -650.155315 70.800000 -640.523376 71.200000 -630.188304 71.600000 -619.198261 72.000000 -607.644750 72.400000 -595.662617 72.800000 -583.449318 73.200000 -571.216755 73.600000 -559.210542 74.000000 -547.661847 74.400000 -536.758491 74.800000 -526.644955 75.200000 -517.374213 75.600000 -508.951082 76.000000 -501.317770 76.400000 -494.402037 76.800000 -488.112381 77.200000 -482.362113 77.600000 -477.069362 78.000000 -472.181153 78.400000 -467.634877 78.800000 -463.396824 79.200000 -459.433281 79.600000 -455.715352 80.000000 -452.223774 80.400000 -448.934467 80.800000 -445.842614 81.200000 -442.928952 81.600000 -440.179034 82.000000 -437.578410 82.400000 -435.122265 82.800000 -432.800968 83.200000 -430.600070 83.600000 -428.519571 84.000000 -426.540207 84.400000 -424.661979 84.800000 -422.880070 85.200000 -421.180033 85.600000 -419.561867 86.000000 -418.020757 86.400000 -416.547070 86.800000 -415.140807 87.200000 -413.797151 87.600000 -412.511287 88.000000 -411.278399 88.400000 -410.098487 88.800000 -408.966734 89.200000 -407.878325 89.600000 -406.828443 90.000000 -405.821905 90.400000 -404.853896 90.800000 -403.924413 91.200000 -403.023827 91.600000 -402.156952 92.000000 -401.318974 92.400000 -400.509891 92.800000 -399.729704 93.200000 -398.973596 93.600000 -398.241569 94.000000 -397.533621 94.400000 -396.849754 94.800000 -396.185150 95.200000 -395.544626 95.600000 -394.918550 96.000000 -394.311738 96.400000 -393.724189 96.800000 -393.151089 97.200000 -392.597252 97.600000 -392.057864 98.000000 -391.532923 98.400000 -391.022430 98.800000 -390.526385 99.200000 -390.039973 99.600000 -389.572823 100.000000 -389.110490 100.400000 -388.662605 100.800000 -388.229168 101.200000 -387.800547 101.600000 -387.386373 102.000000 -386.981832 102.400000 -386.586922 102.800000 -386.201645 103.200000 -385.825999 103.600000 -385.455169 104.000000 -385.098788 104.400000 -384.747222 104.800000 -384.400472 105.200000 -384.063354 105.600000 -383.735868 106.000000 -383.413198 106.400000 -383.100160 106.800000 -382.791938 107.200000 -382.488532 107.600000 -382.194758 108.000000 -381.905800 108.400000 -381.621657 108.800000 -381.342331 109.200000 -381.067821 109.600000 -380.802943 110.000000 -380.538064 110.400000 -380.282818 110.800000 -380.032387 111.200000 -379.781957 111.600000 -379.541158 112.000000 -379.305176 112.400000 -379.069193 112.800000 -378.838027 113.200000 -378.616492 113.600000 -378.394958 114.000000 -378.173423 114.400000 -377.961520 114.800000 -377.754434 115.200000 -377.547347 115.600000 -377.345076 116.000000 -377.142806 116.400000 -376.950167 116.800000 -376.757528 117.200000 -376.564889 117.600000 -376.381882 118.000000 -376.198875 118.400000 -376.015869 118.800000 -375.837678 119.200000 -375.664303 119.600000 -375.490928 120.000000 -375.322369 120.400000 -375.158626 120.800000 -374.994883 121.200000 -374.831140 121.600000 -374.672213 122.000000 -374.518102 122.400000 -374.363991 122.800000 -374.209880 123.200000 -374.060585 123.600000 -373.911290 124.000000 -373.766811 124.400000 -373.622332 124.800000 -373.482669 125.200000 -373.343005 125.600000 -373.208158 126.000000 -373.073311 126.400000 -372.938464 126.800000 -372.808433 127.200000 -372.678402 127.600000 -372.548370 128.000000 -372.423155 128.400000 -372.297940 128.800000 -372.177541 129.200000 -372.052326 129.600000 -371.936742 130.000000 -371.816343 130.400000 -371.700760 130.800000 -371.585176 131.200000 -371.469593 131.600000 -371.358826 132.000000 -371.248059 132.400000 -371.142107 132.800000 -371.031340 133.200000 -370.925389 133.600000 -370.819437 134.000000 -370.718302 134.400000 -370.612351 134.800000 -370.511215 135.200000 -370.414896 135.600000 -370.313760 136.000000 -370.217441 136.400000 -370.121122 136.800000 -370.024802 137.200000 -369.928483 137.600000 -369.836979 138.000000 -369.745476 138.400000 -369.653973 138.800000 -369.562469 139.200000 -369.475782 139.600000 -369.384278 140.000000 -369.297591 140.400000 -369.215719 140.800000 -369.129032 141.200000 -369.042344 141.600000 -368.960473 142.000000 -368.878601 142.400000 -368.796730 142.800000 -368.714858 143.200000 -368.637803 143.600000 -368.560747 144.000000 -368.478876 144.400000 -368.401820 144.800000 -368.329581 145.200000 -368.252525 145.600000 -368.175470 146.000000 -368.103230 146.400000 -368.030991 146.800000 -367.958751 147.200000 -367.886512 147.600000 -367.814272 148.000000 -367.746849 148.400000 -367.674609 148.800000 -367.607185 149.200000 -367.539762 149.600000 -367.472338 150.000000 -367.404915 150.400000 -367.337491 150.800000 -367.274884 151.200000 -367.207460 151.600000 -367.144852 152.000000 -367.082245 152.400000 -367.019637 152.800000 -366.957030 153.200000 -366.894422 153.600000 -366.831814 154.000000 -366.774023 154.400000 -366.711415 154.800000 -366.653623 155.200000 -366.595832 155.600000 -366.538040 156.000000 -366.480249 156.400000 -366.422457 156.800000 -366.364665 157.200000 -366.306874 157.600000 -366.253898 158.000000 -366.196106 158.400000 -366.143131 158.800000 -366.090155 159.200000 -366.037179 159.600000 -365.984204 160.000000 -365.931228 160.400000 -365.878252 160.800000 -365.825277 161.200000 -365.772301 161.600000 -365.724141 162.000000 -365.671166 162.400000 -365.623006 162.800000 -365.574846 163.200000 -365.521871 163.600000 -365.473711 164.000000 -365.425551 164.400000 -365.377391 164.800000 -365.329232 165.200000 -365.285888 165.600000 -365.237728 166.000000 -365.189569 166.400000 -365.146225 166.800000 -365.098065 167.200000 -365.054721 167.600000 -365.011378 168.000000 -364.963218 168.400000 -364.919874 168.800000 -364.876531 169.200000 -364.833187 169.600000 -364.789843 170.000000 -364.746499 170.400000 -364.703156 170.800000 -364.664628 171.200000 -364.621284 171.600000 -364.577940 172.000000 -364.539413 172.400000 -364.496069 172.800000 -364.457541 173.200000 -364.419013 173.600000 -364.380486 174.000000 -364.337142 174.400000 -364.298614 174.800000 -364.260086 175.200000 -364.221559 175.600000 -364.183031 176.000000 -364.144503 176.400000 -364.105975 176.800000 -364.072264 177.200000 -364.033736 177.600000 -363.995208 178.000000 -363.961496 178.400000 -363.922969 178.800000 -363.889257 179.200000 -363.850729 179.600000 -363.817017 180.000000 -363.778489 180.400000 -363.744778 180.800000 -363.711066 181.200000 -363.677354 181.600000 -363.643642 182.000000 -363.609931 182.400000 -363.576219 182.800000 -363.542507 183.200000 -363.508795 183.600000 -363.475083 184.000000 -363.441372 184.400000 -363.407660 184.800000 -363.373948 185.200000 -363.345052 185.600000 -363.311340 186.000000 -363.277629 186.400000 -363.248733 186.800000 -363.215021 187.200000 -363.186125 187.600000 -363.157229 188.000000 -363.123518 188.400000 -363.094622 188.800000 -363.065726 189.200000 -363.032014 189.600000 -363.003118 190.000000 -362.974223 190.400000 -362.945327 190.800000 -362.916431 191.200000 -362.887535 191.600000 -362.858639 192.000000 -362.829743 192.400000 -362.800848 192.800000 -362.771952 193.200000 -362.743056 193.600000 -362.714160 194.000000 -362.690080 194.400000 -362.661184 194.800000 -362.632289 195.200000 -362.608209 195.600000 -362.579313 196.000000 -362.550417 196.400000 -362.526337 196.800000 -362.497442 197.200000 -362.473362 197.600000 -362.444466 198.000000 -362.420386 198.400000 -362.396306 198.800000 -362.367410 199.200000 -362.343330 199.600000 -362.319251 200.000000 -362.290355 200.400000 -362.266275 200.800000 -362.242195 201.200000 -362.218115 201.600000 -362.194035 202.000000 -362.169956 202.400000 -362.145876 202.800000 -362.121796 203.200000 -362.097716 203.600000 -362.073636 204.000000 -362.049556 204.400000 -362.025476 204.800000 -362.001397 205.200000 -361.977317 205.600000 -361.953237 206.000000 -361.929157 206.400000 -361.909893 206.800000 -361.885813 207.200000 -361.861734 207.600000 -361.842470 208.000000 -361.818390 208.400000 -361.794310 208.800000 -361.775046 209.200000 -361.750966 209.600000 -361.731702 210.000000 -361.707622 210.400000 -361.688359 210.800000 -361.664279 211.200000 -361.645015 211.600000 -361.620935 212.000000 -361.601671 212.400000 -361.577591 212.800000 -361.558327 213.200000 -361.539064 213.600000 -361.514984 214.000000 -361.495720 214.400000 -361.476456 214.800000 -361.457192 215.200000 -361.437928 215.600000 -361.413848 216.000000 -361.394584 216.400000 -361.375321 216.800000 -361.356057 217.200000 -361.336793 217.600000 -361.317529 218.000000 -361.298265 218.400000 -361.279001 218.800000 -361.259737 219.200000 -361.240473 219.600000 -361.221210 220.000000 -361.201946 220.400000 -361.182682 220.800000 -361.163418 221.200000 -361.144154 221.600000 -361.124890 222.000000 -361.110442 222.400000 -361.091178 222.800000 -361.071914 223.200000 -361.052651 223.600000 -361.033387 224.000000 -361.018939 224.400000 -360.999675 224.800000 -360.980411 225.200000 -360.965963 225.600000 -360.946699 226.000000 -360.927435 226.400000 -360.912987 226.800000 -360.893724 227.200000 -360.879276 227.600000 -360.860012 228.000000 -360.840748 228.400000 -360.826300 228.800000 -360.807036 229.200000 -360.792588 229.600000 -360.773324 230.000000 -360.758876 230.400000 -360.744429 230.800000 -360.725165 231.200000 -360.710717 231.600000 -360.691453 232.000000 -360.677005 232.400000 -360.662557 232.800000 -360.643293 233.200000 -360.628845 233.600000 -360.614397 234.000000 -360.595133 234.400000 -360.580686 234.800000 -360.566238 235.200000 -360.551790 235.600000 -360.532526 236.000000 -360.518078 236.400000 -360.503630 236.800000 -360.489182 237.200000 -360.474734 237.600000 -360.455470 238.000000 -360.441022 238.400000 -360.426575 238.800000 -360.412127 239.200000 -360.397679 239.600000 -360.383231 240.000000 -360.368783 240.400000 -360.354335 240.800000 -360.339887 241.200000 -360.325439 241.600000 -360.310991 242.000000 -360.296543 242.400000 -360.282095 242.800000 -360.267648 243.200000 -360.253200 243.600000 -360.238752 244.000000 -360.224304 244.400000 -360.209856 244.800000 -360.195408 245.200000 -360.180960 245.600000 -360.171328 246.000000 -360.156880 246.400000 -360.142432 246.800000 -360.127984 247.200000 -360.113536 247.600000 -360.099089 248.000000 -360.089457 248.400000 -360.075009 248.800000 -360.060561 249.200000 -360.046113 249.600000 -360.036481 250.000000 -360.022033 250.400000 -360.007585 250.800000 -359.993137 251.200000 -359.983505 251.600000 -359.969057 252.000000 -359.954609 252.400000 -359.944978 252.800000 -359.930530 253.200000 -359.920898 253.600000 -359.906450 254.000000 -359.892002 254.400000 -359.882370 254.800000 -359.867922 255.200000 -359.858290 255.600000 -359.843842 256.000000 -359.829394 256.400000 -359.819762 256.800000 -359.805314 257.200000 -359.795682 257.600000 -359.781235 258.000000 -359.771603 258.400000 -359.757155 258.800000 -359.747523 259.200000 -359.733075 259.600000 -359.723443 260.000000 -359.713811 260.400000 -359.699363 260.800000 -359.689731 261.200000 -359.675283 261.600000 -359.665651 262.000000 -359.651203 262.400000 -359.641571 262.800000 -359.631940 263.200000 -359.617492 263.600000 -359.607860 264.000000 -359.598228 264.400000 -359.583780 264.800000 -359.574148 265.200000 -359.564516 265.600000 -359.550068 266.000000 -359.540436 266.400000 -359.530804 266.800000 -359.521172 267.200000 -359.506724 267.600000 -359.497092 268.000000 -359.487460 268.400000 -359.477828 268.800000 -359.463381 269.200000 -359.453749 269.600000 -359.444117 270.000000 -359.434485 270.400000 -359.420037 270.800000 -359.410405 271.200000 -359.400773 271.600000 -359.391141 272.000000 -359.381509 272.400000 -359.371877 272.800000 -359.357429 273.200000 -359.347797 273.600000 -359.338165 274.000000 -359.328533 274.400000 -359.318901 274.800000 -359.309270 275.200000 -359.299638 275.600000 -359.290006 276.000000 -359.280374 276.400000 -359.270742 276.800000 -359.256294 277.200000 -359.246662 277.600000 -359.237030 278.000000 -359.227398 278.400000 -359.217766 278.800000 -359.208134 279.200000 -359.198502 279.600000 -359.188870 280.000000 -359.179238 280.400000 -359.169606 280.800000 -359.159974 281.200000 -359.150343 281.600000 -359.140711 282.000000 -359.131079 282.400000 -359.121447 282.800000 -359.116631 283.200000 -359.106999 283.600000 -359.097367 284.000000 -359.087735 284.400000 -359.078103 284.800000 -359.068471 285.200000 -359.058839 285.600000 -359.049207 286.000000 -359.039575 286.400000 -359.029943 286.800000 -359.020311 287.200000 -359.015495 287.600000 -359.005863 288.000000 -358.996232 288.400000 -358.986600 288.800000 -358.976968 289.200000 -358.967336 289.600000 -358.962520 290.000000 -358.952888 290.400000 -358.943256 290.800000 -358.933624 291.200000 -358.923992 291.600000 -358.919176 292.000000 -358.909544 292.400000 -358.899912 292.800000 -358.890280 293.200000 -358.880648 293.600000 -358.875832 294.000000 -358.866200 294.400000 -358.856568 294.800000 -358.846936 295.200000 -358.842120 295.600000 -358.832489 296.000000 -358.822857 296.400000 -358.818041 296.800000 -358.808409 297.200000 -358.798777 297.600000 -358.789145 298.000000 -358.784329 298.400000 -358.774697 298.800000 -358.765065 299.200000 -358.760249 299.600000 -358.750617 300.000000 -358.740985 300.400000 -358.736169 300.800000 -358.726537 301.200000 -358.716905 301.600000 -358.712089 302.000000 -358.702457 302.400000 -358.697641 302.800000 -358.688009 303.200000 -358.678377 303.600000 -358.673562 304.000000 -358.663930 304.400000 -358.654298 304.800000 -358.649482 305.200000 -358.639850 305.600000 -358.635034 306.000000 -358.625402 306.400000 -358.620586 306.800000 -358.610954 307.200000 -358.601322 307.600000 -358.596506 308.000000 -358.586874 308.400000 -358.582058 308.800000 -358.572426 309.200000 -358.567610 309.600000 -358.557978 310.000000 -358.553162 310.400000 -358.543530 310.800000 -358.538714 311.200000 -358.529082 311.600000 -358.524266 312.000000 -358.514635 312.400000 -358.509819 312.800000 -358.500187 313.200000 -358.495371 313.600000 -358.485739 314.000000 -358.480923 314.400000 -358.471291 314.800000 -358.466475 315.200000 -358.456843 315.600000 -358.452027 316.000000 -358.442395 316.400000 -358.437579 316.800000 -358.432763 317.200000 -358.423131 317.600000 -358.418315 318.000000 -358.408683 318.400000 -358.403867 318.800000 -358.394235 319.200000 -358.389419 319.600000 -358.384603 320.000000 -358.374971 320.400000 -358.370155 320.800000 -358.360523 321.200000 -358.355708 321.600000 -358.350892 322.000000 -358.341260 322.400000 -358.336444 322.800000 -358.326812 323.200000 -358.321996 323.600000 -358.317180 324.000000 -358.307548 324.400000 -358.302732 324.800000 -358.297916 325.200000 -358.288284 325.600000 -358.283468 326.000000 -358.278652 326.400000 -358.269020 326.800000 -358.264204 327.200000 -358.259388 327.600000 -358.249756 328.000000 -358.244940 328.400000 -358.240124 328.800000 -358.230492 329.200000 -358.225676 329.600000 -358.220860 330.000000 -358.211228 330.400000 -358.206412 330.800000 -358.201596 331.200000 -358.196781 331.600000 -358.187149 332.000000 -358.182333 332.400000 -358.177517 332.800000 -358.172701 333.200000 -358.163069 333.600000 -358.158253 334.000000 -358.153437 334.400000 -358.143805 334.800000 -358.138989 335.200000 -358.134173 335.600000 -358.129357 336.000000 -358.119725 336.400000 -358.114909 336.800000 -358.110093 337.200000 -358.105277 337.600000 -358.100461 338.000000 -358.090829 338.400000 -358.086013 338.800000 -358.081197 339.200000 -358.076381 339.600000 -358.071565 340.000000 -358.061933 340.400000 -358.057117 340.800000 -358.052301 341.200000 -358.047485 341.600000 -358.042669 342.000000 -358.033038 342.400000 -358.028222 342.800000 -358.023406 343.200000 -358.018590 343.600000 -358.013774 344.000000 -358.004142 344.400000 -357.999326 344.800000 -357.994510 345.200000 -357.989694 345.600000 -357.984878 346.000000 -357.980062 346.400000 -357.975246 346.800000 -357.965614 347.200000 -357.960798 347.600000 -357.955982 348.000000 -357.951166 348.400000 -357.946350 348.800000 -357.941534 349.200000 -357.936718 349.600000 -357.931902 350.000000 -357.922270 350.400000 -357.917454 350.800000 -357.912638 351.200000 -357.907822 351.600000 -357.903006 352.000000 -357.898190 352.400000 -357.893374 352.800000 -357.888558 353.200000 -357.883742 353.600000 -357.874111 354.000000 -357.869295 354.400000 -357.864479 354.800000 -357.859663 355.200000 -357.854847 355.600000 -357.850031 356.000000 -357.845215 356.400000 -357.840399 356.800000 -357.835583 357.200000 -357.830767 357.600000 -357.825951 358.000000 -357.821135 358.400000 -357.816319 358.800000 -357.811503 359.200000 -357.806687 359.600000 -357.801871 360.000000 -357.792239 360.400000 -357.787423 360.800000 -357.782607 361.200000 -357.777791 361.600000 -357.772975 362.000000 -357.768159 362.400000 -357.763343 362.800000 -357.758527 363.200000 -357.753711 363.600000 -357.748895 364.000000 -357.744079 364.400000 -357.739263 364.800000 -357.734447 365.200000 -357.729631 365.600000 -357.724815 366.000000 -357.720000 366.400000 -357.715184 366.800000 -357.710368 367.200000 -357.705552 367.600000 -357.700736 368.000000 -357.695920 368.400000 -357.691104 368.800000 -357.686288 369.200000 -357.681472 369.600000 -357.676656 370.000000 -357.671840 370.400000 -357.667024 370.800000 -357.662208 371.200000 -357.662208 371.600000 -357.657392 372.000000 -357.652576 372.400000 -357.647760 372.800000 -357.642944 373.200000 -357.638128 373.600000 -357.633312 374.000000 -357.628496 374.400000 -357.623680 374.800000 -357.618864 375.200000 -357.614048 375.600000 -357.609232 376.000000 -357.604416 376.400000 -357.599600 376.800000 -357.594784 377.200000 -357.589968 377.600000 -357.585152 378.000000 -357.585152 378.400000 -357.580336 378.800000 -357.575520 379.200000 -357.570704 379.600000 -357.565888 380.000000 -357.561073 380.400000 -357.556257 380.800000 -357.551441 381.200000 -357.546625 381.600000 -357.541809 382.000000 -357.536993 382.400000 -357.536993 382.800000 -357.532177 383.200000 -357.527361 383.600000 -357.522545 384.000000 -357.517729 384.400000 -357.512913 384.800000 -357.508097 385.200000 -357.503281 385.600000 -357.498465 386.000000 -357.498465 386.400000 -357.493649 386.800000 -357.488833 387.200000 -357.484017 387.600000 -357.479201 388.000000 -357.474385 388.400000 -357.469569 388.800000 -357.469569 389.200000 -357.464753 389.600000 -357.459937 390.000000 -357.455121 390.400000 -357.450305 390.800000 -357.445489 391.200000 -357.440673 391.600000 -357.440673 392.000000 -357.435857 392.400000 -357.431041 392.800000 -357.426225 393.200000 -357.421409 393.600000 -357.416593 394.000000 -357.416593 394.400000 -357.411777 394.800000 -357.406961 395.200000 -357.402146 395.600000 -357.397330 396.000000 -357.392514 396.400000 -357.392514 396.800000 -357.387698 397.200000 -357.382882 397.600000 -357.378066 398.000000 -357.373250 398.400000 -357.373250 398.800000 -357.368434 399.200000 -357.363618 399.600000 -357.358802 400.000000 -357.353986 400.400000 -357.353986 400.800000 -357.349170 401.200000 -357.344354 401.600000 -357.339538 402.000000 -357.334722 402.400000 -357.334722 402.800000 -357.329906 403.200000 -357.325090 403.600000 -357.320274 404.000000 -357.315458 404.400000 -357.315458 404.800000 -357.310642 405.200000 -357.305826 405.600000 -357.301010 406.000000 -357.301010 406.400000 -357.296194 406.800000 -357.291378 407.200000 -357.286562 407.600000 -357.286562 408.000000 -357.281746 408.400000 -357.276930 408.800000 -357.272114 409.200000 -357.267298 409.600000 -357.267298 410.000000 -357.262482 410.400000 -357.257666 410.800000 -357.252850 411.200000 -357.252850 411.600000 -357.248034 412.000000 -357.243219 412.400000 -357.238403 412.800000 -357.238403 413.200000 -357.233587 413.600000 -357.228771 414.000000 -357.228771 414.400000 -357.223955 414.800000 -357.219139 415.200000 -357.214323 415.600000 -357.214323 416.000000 -357.209507 416.400000 -357.204691 416.800000 -357.199875 417.200000 -357.199875 417.600000 -357.195059 418.000000 -357.190243 418.400000 -357.190243 418.800000 -357.185427 419.200000 -357.180611 419.600000 -357.175795 420.000000 -357.175795 420.400000 -357.170979 420.800000 -357.166163 421.200000 -357.166163 421.600000 -357.161347 422.000000 -357.156531 422.400000 -357.151715 422.800000 -357.151715 423.200000 -357.146899 423.600000 -357.142083 424.000000 -357.142083 424.400000 -357.137267 424.800000 -357.132451 425.200000 -357.132451 425.600000 -357.127635 426.000000 -357.122819 426.400000 -357.122819 426.800000 -357.118003 427.200000 -357.113187 427.600000 -357.113187 428.000000 -357.108371 428.400000 -357.103555 428.800000 -357.098739 429.200000 -357.098739 429.600000 -357.093923 430.000000 -357.089107 430.400000 -357.089107 430.800000 -357.084292 431.200000 -357.079476 431.600000 -357.079476 432.000000 -357.074660 432.400000 -357.069844 432.800000 -357.069844 433.200000 -357.065028 433.600000 -357.060212 434.000000 -357.060212 434.400000 -357.055396 434.800000 -357.055396 435.200000 -357.050580 435.600000 -357.045764 436.000000 -357.045764 436.400000 -357.040948 436.800000 -357.036132 437.200000 -357.036132 437.600000 -357.031316 438.000000 -357.026500 438.400000 -357.026500 438.800000 -357.021684 439.200000 -357.016868 439.600000 -357.016868 440.000000 -357.012052 440.400000 -357.012052 440.800000 -357.007236 441.200000 -357.002420 441.600000 -357.002420 442.000000 -356.997604 442.400000 -356.992788 442.800000 -356.992788 443.200000 -356.987972 443.600000 -356.983156 444.000000 -356.983156 444.400000 -356.978340 444.800000 -356.978340 445.200000 -356.973524 445.600000 -356.968708 446.000000 -356.968708 446.400000 -356.963892 446.800000 -356.963892 447.200000 -356.959076 447.600000 -356.954260 448.000000 -356.954260 448.400000 -356.949444 448.800000 -356.949444 449.200000 -356.944628 449.600000 -356.939812 450.000000 -356.939812 450.400000 -356.934996 450.800000 -356.934996 451.200000 -356.930180 451.600000 -356.925365 452.000000 -356.925365 452.400000 -356.920549 452.800000 -356.920549 453.200000 -356.915733 453.600000 -356.910917 454.000000 -356.910917 454.400000 -356.906101 454.800000 -356.906101 455.200000 -356.901285 455.600000 -356.896469 456.000000 -356.896469 456.400000 -356.891653 456.800000 -356.891653 457.200000 -356.886837 457.600000 -356.886837 458.000000 -356.882021 458.400000 -356.877205 458.800000 -356.877205 459.200000 -356.872389 459.600000 -356.872389 460.000000 -356.867573 460.400000 -356.867573 460.800000 -356.862757 461.200000 -356.857941 461.600000 -356.857941 462.000000 -356.853125 462.400000 -356.853125 462.800000 -356.848309 463.200000 -356.848309 463.600000 -356.843493 464.000000 -356.838677 464.400000 -356.838677 464.800000 -356.833861 465.200000 -356.833861 465.600000 -356.829045 466.000000 -356.829045 466.400000 -356.824229 466.800000 -356.824229 467.200000 -356.819413 467.600000 -356.814597 468.000000 -356.814597 468.400000 -356.809781 468.800000 -356.809781 469.200000 -356.804965 469.600000 -356.804965 470.000000 -356.800149 470.400000 -356.800149 470.800000 -356.795333 471.200000 -356.795333 471.600000 -356.790517 472.000000 -356.785701 472.400000 -356.785701 472.800000 -356.780885 473.200000 -356.780885 473.600000 -356.776069 474.000000 -356.776069 474.400000 -356.771253 474.800000 -356.771253 475.200000 -356.766438 475.600000 -356.766438 476.000000 -356.761622 476.400000 -356.761622 476.800000 -356.756806 477.200000 -356.756806 477.600000 -356.751990 478.000000 -356.751990 478.400000 -356.747174 478.800000 -356.747174 479.200000 -356.742358 479.600000 -356.737542 480.000000 -356.737542 480.400000 -356.732726 480.800000 -356.732726 481.200000 -356.727910 481.600000 -356.727910 482.000000 -356.723094 482.400000 -356.723094 482.800000 -356.718278 483.200000 -356.718278 483.600000 -356.713462 484.000000 -356.713462 484.400000 -356.708646 484.800000 -356.708646 485.200000 -356.703830 485.600000 -356.703830 486.000000 -356.699014 486.400000 -356.699014 486.800000 -356.694198 487.200000 -356.694198 487.600000 -356.689382 488.000000 -356.689382 488.400000 -356.684566 488.800000 -356.684566 489.200000 -356.679750 489.600000 -356.679750 490.000000 -356.674934 490.400000 -356.674934 490.800000 -356.670118 491.200000 -356.670118 491.600000 -356.665302 492.000000 -356.665302 492.400000 -356.660486 492.800000 -356.660486 493.200000 -356.660486 493.600000 -356.655670 494.000000 -356.655670 494.400000 -356.650854 494.800000 -356.650854 495.200000 -356.646038 495.600000 -356.646038 496.000000 -356.641222 496.400000 -356.641222 496.800000 -356.636406 497.200000 -356.636406 497.600000 -356.631590 498.000000 -356.631590 498.400000 -356.626774 498.800000 -356.626774 499.200000 -356.621958 499.600000 -356.621958 500.000000 -356.617142 500.400000 -356.617142 500.800000 -356.612326 501.200000 -356.612326 501.600000 -356.612326 502.000000 -356.607511 502.400000 -356.607511 502.800000 -356.602695 503.200000 -356.602695 503.600000 -356.597879 504.000000 -356.597879 504.400000 -356.593063 504.800000 -356.593063 505.200000 -356.588247 505.600000 -356.588247 506.000000 -356.588247 506.400000 -356.583431 506.800000 -356.583431 507.200000 -356.578615 507.600000 -356.578615 508.000000 -356.573799 508.400000 -356.573799 508.800000 -356.568983 509.200000 -356.568983 509.600000 -356.564167 510.000000 -356.564167 510.400000 -356.564167 510.800000 -356.559351 511.200000 -356.559351 511.600000 -356.554535 512.000000 -356.554535 512.400000 -356.549719 512.800000 -356.549719 513.200000 -356.544903 513.600000 -356.544903 514.000000 -356.544903 514.400000 -356.540087 514.800000 -356.540087 515.200000 -356.535271 515.600000 -356.535271 516.000000 -356.530455 516.400000 -356.530455 516.800000 -356.530455 517.200000 -356.525639 517.600000 -356.525639 518.000000 -356.520823 518.400000 -356.520823 518.800000 -356.516007 519.200000 -356.516007 519.600000 -356.516007 520.000000 -356.511191 520.400000 -356.511191 520.800000 -356.506375 521.200000 -356.506375 521.600000 -356.501559 522.000000 -356.501559 522.400000 -356.501559 522.800000 -356.496743 523.200000 -356.496743 523.600000 -356.491927 524.000000 -356.491927 524.400000 -356.487111 524.800000 -356.487111 525.200000 -356.487111 525.600000 -356.482295 526.000000 -356.482295 526.400000 -356.477479 526.800000 -356.477479 527.200000 -356.477479 527.600000 -356.472663 528.000000 -356.472663 528.400000 -356.467847 528.800000 -356.467847 529.200000 -356.463031 529.600000 -356.463031 530.000000 -356.463031 530.400000 -356.458215 530.800000 -356.458215 531.200000 -356.453399 531.600000 -356.453399 532.000000 -356.453399 532.400000 -356.448584 532.800000 -356.448584 533.200000 -356.443768 533.600000 -356.443768 534.000000 -356.443768 534.400000 -356.438952 534.800000 -356.438952 535.200000 -356.434136 535.600000 -356.434136 536.000000 -356.434136 536.400000 -356.429320 536.800000 -356.429320 537.200000 -356.424504 537.600000 -356.424504 538.000000 -356.424504 538.400000 -356.419688 538.800000 -356.419688 539.200000 -356.414872 539.600000 -356.414872 540.000000 -356.414872 540.400000 -356.410056 540.800000 -356.410056 541.200000 -356.410056 541.600000 -356.405240 542.000000 -356.405240 542.400000 -356.400424 542.800000 -356.400424 543.200000 -356.400424 543.600000 -356.395608 544.000000 -356.395608 544.400000 -356.390792 544.800000 -356.390792 545.200000 -356.390792 545.600000 -356.385976 546.000000 -356.385976 546.400000 -356.385976 546.800000 -356.381160 547.200000 -356.381160 547.600000 -356.376344 548.000000 -356.376344 548.400000 -356.376344 548.800000 -356.371528 549.200000 -356.371528 549.600000 -356.366712 550.000000 -356.366712 550.400000 -356.366712 550.800000 -356.361896 551.200000 -356.361896 551.600000 -356.361896 552.000000 -356.357080 552.400000 -356.357080 552.800000 -356.357080 553.200000 -356.352264 553.600000 -356.352264 554.000000 -356.347448 554.400000 -356.347448 554.800000 -356.347448 555.200000 -356.342632 555.600000 -356.342632 556.000000 -356.342632 556.400000 -356.337816 556.800000 -356.337816 557.200000 -356.333000 557.600000 -356.333000 558.000000 -356.333000 558.400000 -356.328184 558.800000 -356.328184 559.200000 -356.328184 559.600000 -356.323368 560.000000 -356.323368 560.400000 -356.323368 560.800000 -356.318552 561.200000 -356.318552 561.600000 -356.318552 562.000000 -356.313736 562.400000 -356.313736 562.800000 -356.308920 563.200000 -356.308920 563.600000 -356.308920 564.000000 -356.304104 564.400000 -356.304104 564.800000 -356.304104 565.200000 -356.299288 565.600000 -356.299288 566.000000 -356.299288 566.400000 -356.294472 566.800000 -356.294472 567.200000 -356.294472 567.600000 -356.289657 568.000000 -356.289657 568.400000 -356.289657 568.800000 -356.284841 569.200000 -356.284841 569.600000 -356.280025 570.000000 -356.280025 570.400000 -356.280025 570.800000 -356.275209 571.200000 -356.275209 571.600000 -356.275209 572.000000 -356.270393 572.400000 -356.270393 572.800000 -356.270393 573.200000 -356.265577 573.600000 -356.265577 574.000000 -356.265577 574.400000 -356.260761 574.800000 -356.260761 575.200000 -356.260761 575.600000 -356.255945 576.000000 -356.255945 576.400000 -356.255945 576.800000 -356.251129 577.200000 -356.251129 577.600000 -356.251129 578.000000 -356.246313 578.400000 -356.246313 578.800000 -356.246313 579.200000 -356.241497 579.600000 -356.241497 580.000000 -356.241497 580.400000 -356.236681 580.800000 -356.236681 581.200000 -356.236681 581.600000 -356.231865 582.000000 -356.231865 582.400000 -356.231865 582.800000 -356.227049 583.200000 -356.227049 583.600000 -356.227049 584.000000 -356.222233 584.400000 -356.222233 584.800000 -356.222233 585.200000 -356.217417 585.600000 -356.217417 586.000000 -356.217417 586.400000 -356.212601 586.800000 -356.212601 587.200000 -356.212601 587.600000 -356.212601 588.000000 -356.207785 588.400000 -356.207785 588.800000 -356.207785 589.200000 -356.202969 589.600000 -356.202969 590.000000 -356.202969 590.400000 -356.198153 590.800000 -356.198153 591.200000 -356.198153 591.600000 -356.193337 592.000000 -356.193337 592.400000 -356.193337 592.800000 -356.188521 593.200000 -356.188521 593.600000 -356.188521 594.000000 -356.183705 594.400000 -356.183705 594.800000 -356.183705 595.200000 -356.178889 595.600000 -356.178889 596.000000 -356.178889 596.400000 -356.178889 596.800000 -356.174073 597.200000 -356.174073 597.600000 -356.174073 598.000000 -356.169257 598.400000 -356.169257 598.800000 -356.169257 599.200000 -356.164441 599.600000 -356.164441 600.000000 -356.164441 600.400000 -356.159625 600.800000 -356.159625 601.200000 -356.159625 601.600000 -356.159625 602.000000 -356.154809 602.400000 -356.154809 602.800000 -356.154809 603.200000 -356.149993 603.600000 -356.149993 604.000000 -356.149993 604.400000 -356.145177 604.800000 -356.145177 605.200000 -356.145177 605.600000 -356.145177 606.000000 -356.140361 606.400000 -356.140361 606.800000 -356.140361 607.200000 -356.135545 607.600000 -356.135545 608.000000 -356.135545 608.400000 -356.130729 608.800000 -356.130729 609.200000 -356.130729 609.600000 -356.130729 610.000000 -356.125914 610.400000 -356.125914 610.800000 -356.125914 611.200000 -356.121098 611.600000 -356.121098 612.000000 -356.121098 612.400000 -356.121098 612.800000 -356.116282 613.200000 -356.116282 613.600000 -356.116282 614.000000 -356.111466 614.400000 -356.111466 614.800000 -356.111466 615.200000 -356.106650 615.600000 -356.106650 616.000000 -356.106650 616.400000 -356.106650 616.800000 -356.101834 617.200000 -356.101834 617.600000 -356.101834 618.000000 -356.097018 618.400000 -356.097018 618.800000 -356.097018 619.200000 -356.097018 619.600000 -356.092202 620.000000 -356.092202 620.400000 -356.092202 620.800000 -356.087386 621.200000 -356.087386 621.600000 -356.087386 622.000000 -356.087386 622.400000 -356.082570 622.800000 -356.082570 623.200000 -356.082570 623.600000 -356.077754 624.000000 -356.077754 624.400000 -356.077754 624.800000 -356.077754 625.200000 -356.072938 625.600000 -356.072938 626.000000 -356.072938 626.400000 -356.072938 626.800000 -356.068122 627.200000 -356.068122 627.600000 -356.068122 628.000000 -356.063306 628.400000 -356.063306 628.800000 -356.063306 629.200000 -356.063306 629.600000 -356.058490 630.000000 -356.058490 630.400000 -356.058490 630.800000 -356.058490 631.200000 -356.053674 631.600000 -356.053674 632.000000 -356.053674 632.400000 -356.048858 632.800000 -356.048858 633.200000 -356.048858 633.600000 -356.048858 634.000000 -356.044042 634.400000 -356.044042 634.800000 -356.044042 635.200000 -356.044042 635.600000 -356.039226 636.000000 -356.039226 636.400000 -356.039226 636.800000 -356.034410 637.200000 -356.034410 637.600000 -356.034410 638.000000 -356.034410 638.400000 -356.029594 638.800000 -356.029594 639.200000 -356.029594 639.600000 -356.029594 640.000000 -356.024778 640.400000 -356.024778 640.800000 -356.024778 641.200000 -356.024778 641.600000 -356.019962 642.000000 -356.019962 642.400000 -356.019962 642.800000 -356.015146 643.200000 -356.015146 643.600000 -356.015146 644.000000 -356.015146 644.400000 -356.010330 644.800000 -356.010330 645.200000 -356.010330 645.600000 -356.010330 646.000000 -356.005514 646.400000 -356.005514 646.800000 -356.005514 647.200000 -356.005514 647.600000 -356.000698 648.000000 -356.000698 648.400000 -356.000698 648.800000 -356.000698 649.200000 -355.995882 649.600000 -355.995882 650.000000 -355.995882 " stroke="rgb(255,0,0)" fill="none" stroke-width="2"/>
<text x="600" y="50" fill="rgb(255,0,0)">ex3.txt</text>
<line x1="50" x2="650" y1="450" y2="450" stroke="rgb(100,100,100)" stroke-width="2"/>
<line x1="50" x2="50" y1="450" y2="50" stroke="rgb(100,100,100)" stroke-width="2"/>
<text x="5" y="500" fill="rgb(0,0,0)">0.00</text>
<text x="645.000000" y="500.000000" fill="black">1500.00</text>
<text x="250" y="500.000000" fill="black"> step</text>
<text x="5" y="50.000000" fill="black">0.25</text>
<text x="5" y="450.000000" fill="black">0.17</text>
<text x="5" y="250" fill="black">err</text>
</svg>
